<?xml version="1.0" encoding="UTF-8" standalone="no"?>
<svg
   xmlns:osb="http://www.openswatchbook.org/uri/2009/osb"
   xmlns:dc="http://purl.org/dc/elements/1.1/"
   xmlns:cc="http://creativecommons.org/ns#"
   xmlns:rdf="http://www.w3.org/1999/02/22-rdf-syntax-ns#"
   xmlns:svg="http://www.w3.org/2000/svg"
   xmlns="http://www.w3.org/2000/svg"
   xmlns:sodipodi="http://sodipodi.sourceforge.net/DTD/sodipodi-0.dtd"
   xmlns:inkscape="http://www.inkscape.org/namespaces/inkscape"
   inkscape:version="1.0 (4035a4fb49, 2020-05-01)"
   sodipodi:docname="defenseIcon.svg"
   id="svg2585"
   version="1.1"
   viewBox="0 0 114.1103 113.9201"
   height="113.9201mm"
   width="114.11031mm">
  <defs
     id="defs2579">
    <linearGradient
       osb:paint="solid"
       id="linearGradient5642">
      <stop
         id="stop5640"
         offset="0"
         style="stop-color:#ff0000;stop-opacity:1;" />
    </linearGradient>
    <inkscape:path-effect
       message="Jeśli po konwersji przycięcia na ścieżki nie zostanie spłaszczony wynik, użyj reguły wypełniania w oknie dialogowym &lt;b&gt;wypełnienie i obrys&lt;/b&gt; ."
       hide_clip="false"
       flatten="false"
       inverse="true"
       lpeversion="1"
       is_visible="true"
       id="path-effect3235"
       effect="powerclip" />
    <clipPath
       id="clipPath3231"
       clipPathUnits="userSpaceOnUse">
      <ellipse
         clip-path="none"
         ry="27.662395"
         rx="16.169806"
         cy="198.56082"
         cx="102.64742"
         id="ellipse3233"
         style="display:block;opacity:1;fill:#77001b;fill-opacity:1;stroke:none;stroke-width:18.5208;stroke-miterlimit:4;stroke-dasharray:none;stroke-opacity:1" />
    </clipPath>
  </defs>
  <sodipodi:namedview
     inkscape:snap-page="false"
     fit-margin-bottom="0"
     fit-margin-right="0"
     fit-margin-left="0"
     fit-margin-top="0"
     showguides="false"
     inkscape:window-maximized="1"
     inkscape:window-y="-8"
     inkscape:window-x="1272"
     inkscape:window-height="987"
     inkscape:window-width="1680"
     showgrid="false"
     inkscape:document-rotation="0"
     inkscape:current-layer="layer4"
     inkscape:document-units="mm"
     inkscape:cy="148.75988"
     inkscape:cx="24.370183"
     inkscape:zoom="0.98994949"
     inkscape:pageshadow="2"
     inkscape:pageopacity="0.0"
     borderopacity="1.0"
     bordercolor="#666666"
     pagecolor="#ffffff"
     id="base" />
  <metadata
     id="metadata2582">
    <rdf:RDF>
      <cc:Work
         rdf:about="">
        <dc:format>image/svg+xml</dc:format>
        <dc:type
           rdf:resource="http://purl.org/dc/dcmitype/StillImage" />
        <dc:title></dc:title>
      </cc:Work>
    </rdf:RDF>
  </metadata>
  <g
     inkscape:label="Warstwa 3"
     id="layer4"
     inkscape:groupmode="layer">
    <path
       transform="scale(0.26458333)"
       id="path5678"
       d="m 227.46883,411.19323 c -2.14932,-3.66754 -9.36351,-10.8639 -20.73604,-20.68482 C 171.41618,360.01024 155.05197,343.24599 137.40871,319.48963 99.771364,268.81157 75.805443,205.1713 65.321493,128.06572 61.612412,100.78681 59.501138,69.636249 59.490557,42.033805 l -0.0052,-13.553474 8.808989,4.558834 c 38.963094,20.164204 61.526824,27.931198 81.097274,27.915691 12.03226,-0.0095 21.32395,-2.208813 33.88771,-8.020988 8.17188,-3.780433 22.75342,-12.714675 34.19754,-20.953148 2.30768,-1.66127 4.30161,-2.914665 4.43095,-2.785322 0.25553,0.255528 7.29717,383.887702 7.05085,384.134022 -0.0825,0.0825 -0.75295,-0.87877 -1.48984,-2.13619 z"
       style="opacity:1;fill:#333333;fill-opacity:1;stroke:none;stroke-width:2.03303;stroke-miterlimit:4;stroke-dasharray:none;stroke-opacity:1" />
    <path
       transform="scale(0.26458333)"
       id="path5682"
       d="m 230.50688,405.20984 c -0.16798,-4.50505 -1.66768,-85.46767 -3.33266,-179.91693 -1.66498,-94.44927 -3.17424,-177.33406 -3.3539,-184.188434 l -0.32666,-12.4625 10.06887,6.654122 c 36.72128,24.267663 56.55068,29.324468 85.6558,21.843565 13.87638,-3.566655 26.16221,-8.652476 50.76267,-21.013643 l 17.80394,-8.94607 -0.002,5.869906 c -0.007,15.686043 -1.58118,48.484975 -3.30053,68.751904 -8.4323,99.39629 -33.97172,177.90749 -75.89941,233.3238 -14.66169,19.37852 -28.9676,33.87229 -55.46121,56.18956 -12.20171,10.27828 -16.89075,14.72553 -20.04775,19.01402 l -2.26126,3.07171 z"
       style="opacity:1;fill:#4d4d4d;fill-opacity:1;stroke:none;stroke-width:2.03303;stroke-miterlimit:4;stroke-dasharray:none;stroke-opacity:1" />
  </g>
</svg>
