<?xml version="1.0" encoding="UTF-8" standalone="no"?>
<svg
   xmlns:dc="http://purl.org/dc/elements/1.1/"
   xmlns:cc="http://creativecommons.org/ns#"
   xmlns:rdf="http://www.w3.org/1999/02/22-rdf-syntax-ns#"
   xmlns:svg="http://www.w3.org/2000/svg"
   xmlns="http://www.w3.org/2000/svg"
   xmlns:sodipodi="http://sodipodi.sourceforge.net/DTD/sodipodi-0.dtd"
   xmlns:inkscape="http://www.inkscape.org/namespaces/inkscape"
   inkscape:version="1.0 (4035a4fb49, 2020-05-01)"
   sodipodi:docname="scoreIcon.svg"
   id="svg2585"
   version="1.1"
   viewBox="0 0 114.1103 113.9201"
   height="113.9201mm"
   width="114.11031mm">
  <defs
     id="defs2579">
    <inkscape:path-effect
       message="Jeśli po konwersji przycięcia na ścieżki nie zostanie spłaszczony wynik, użyj reguły wypełniania w oknie dialogowym &lt;b&gt;wypełnienie i obrys&lt;/b&gt; ."
       hide_clip="false"
       flatten="false"
       inverse="true"
       lpeversion="1"
       is_visible="true"
       id="path-effect3235"
       effect="powerclip" />
    <clipPath
       id="clipPath3231"
       clipPathUnits="userSpaceOnUse">
      <ellipse
         clip-path="none"
         ry="27.662395"
         rx="16.169806"
         cy="198.56082"
         cx="102.64742"
         id="ellipse3233"
         style="display:block;opacity:1;fill:#77001b;fill-opacity:1;stroke:none;stroke-width:18.5208;stroke-miterlimit:4;stroke-dasharray:none;stroke-opacity:1" />
    </clipPath>
  </defs>
  <sodipodi:namedview
     inkscape:snap-page="false"
     fit-margin-bottom="0"
     fit-margin-right="0"
     fit-margin-left="0"
     fit-margin-top="0"
     showguides="false"
     inkscape:window-maximized="1"
     inkscape:window-y="-8"
     inkscape:window-x="1272"
     inkscape:window-height="987"
     inkscape:window-width="1680"
     showgrid="false"
     inkscape:document-rotation="0"
     inkscape:current-layer="layer4"
     inkscape:document-units="mm"
     inkscape:cy="187.93883"
     inkscape:cx="137.09743"
     inkscape:zoom="0.98994949"
     inkscape:pageshadow="2"
     inkscape:pageopacity="0.0"
     borderopacity="1.0"
     bordercolor="#666666"
     pagecolor="#ffffff"
     id="base" />
  <metadata
     id="metadata2582">
    <rdf:RDF>
      <cc:Work
         rdf:about="">
        <dc:format>image/svg+xml</dc:format>
        <dc:type
           rdf:resource="http://purl.org/dc/dcmitype/StillImage" />
        <dc:title></dc:title>
      </cc:Work>
    </rdf:RDF>
  </metadata>
  <g
     inkscape:label="Warstwa 3"
     id="layer4"
     inkscape:groupmode="layer">
    <path
       transform="scale(0.26458333)"
       id="path3542"
       d="m 146.36525,420.82039 -6.2025,-0.15899 0.31172,-2.63599 c 0.46065,-3.89541 1.09848,-5.60239 2.63478,-7.0513 1.41791,-1.33726 4.39783,-2.39544 6.75972,-2.40039 1.3345,-0.003 1.34341,-0.0283 1.63198,-4.67478 0.15958,-2.56957 0.53694,-15.01339 0.83858,-27.65292 0.30164,-12.63954 0.73736,-23.83789 0.96828,-24.88523 0.90142,-4.08847 3.53554,-5.98909 9.2352,-6.66359 l 2.90419,-0.34367 v -4.48169 -4.48167 l 5.91088,-7.47754 c 3.25098,-4.11265 8.19442,-10.43529 10.98541,-14.0503 19.011,-24.62395 27.05335,-42.8334 27.9142,-63.20316 0.25639,-6.06686 0.188,-6.8328 -0.79051,-8.85414 -1.46648,-3.02934 -2.49223,-3.93224 -22.04586,-19.40541 C 155.83044,197.40115 148.14659,190.89053 135.72629,178.59781 107.67314,150.8328 94.61018,124.60512 86.879578,80.523861 85.164181,70.742367 84.629126,55.688184 85.802495,50.219284 c 1.70903,-7.965542 4.684005,-12.935357 9.456609,-15.797645 4.022698,-2.412544 6.125626,-2.889763 12.609396,-2.861461 6.82131,0.02978 12.83754,1.375859 22.45148,5.023339 3.29301,1.249354 6.16122,2.271551 6.37379,2.271551 0.21256,0 0.4619,-5.216535 0.55408,-11.592299 0.11162,-7.719805 0.35789,-11.782309 0.73721,-12.161093 0.31327,-0.312837 1.33605,-0.735673 2.27284,-0.939637 0.93679,-0.203964 35.42612,-0.27197 76.64296,-0.151125 72.47007,0.212478 74.97095,0.25096 75.88771,1.16772 0.87343,0.873429 0.948,1.880491 0.948,12.802244 v 11.854241 l 6.43972,-3.24277 c 11.52932,-5.805674 21.11169,-8.295574 28.11084,-7.304372 13.27618,1.88014 20.16221,15.053744 20.18146,38.608977 0.017,20.783176 -6.21665,42.994356 -17.08097,60.861686 -15.26857,25.1105 -37.74553,48.43094 -94.82955,98.38819 -8.10931,7.09688 -10.42043,9.42186 -12.47163,12.54634 -3.0063,4.57936 -3.34259,6.28994 -3.31257,16.84977 0.0311,10.9469 2.06816,19.24556 7.51262,30.6054 6.16588,12.8651 14.75768,24.44242 30.38867,40.9483 l 6.77714,7.15647 v 3.00819 c 0,1.6545 0.14205,3.71845 0.31567,4.58655 0.29056,1.4528 0.47675,1.57836 2.34052,1.57836 4.7179,0 7.74642,1.9971 9.02343,5.95033 0.43092,1.334 0.66791,9.96554 0.81776,29.78382 l 0.21099,27.90546 h 2.40928 c 6.32532,0 8.9207,2.55044 9.57593,9.41012 l 0.35551,3.72187 -68.96682,-0.10921 c -37.93175,-0.0601 -71.75794,-0.18076 -75.16932,-0.26821 z M 267.31424,177.92936 c 28.11895,-21.911 45.44301,-46.15779 50.73998,-71.01575 1.54646,-7.257374 1.56858,-19.799206 0.0466,-26.441434 -3.4658,-15.125726 -12.77476,-27.474972 -20.71084,-27.474972 -2.03185,0 -3.82898,0.965935 -4.64947,2.499032 -0.27433,0.512598 -1.99905,7.830862 -3.83269,16.262809 -3.50003,16.094765 -8.81734,38.880895 -12.65303,54.221685 -2.17327,8.69199 -13.60729,53.0855 -14.14705,54.92704 -0.14248,0.48614 -0.14454,0.88388 -0.005,0.88388 0.13997,0 2.48494,-1.73803 5.21106,-3.86229 z m -98.83659,3.10175 c 0,-0.1405 -2.29019,-8.83413 -5.08931,-19.31916 -9.63955,-36.10812 -18.29553,-71.220475 -23.00249,-93.30794 -2.55256,-11.977896 -2.821,-12.832832 -4.53505,-14.44309 -1.75715,-1.650758 -5.44604,-1.539068 -8.51203,0.257721 -11.48378,6.729942 -18.89355,26.192017 -17.06762,44.828801 1.99618,20.374518 12.35328,40.047928 31.42546,59.692938 5.91777,6.09551 14.51791,13.70103 21.91922,19.38422 3.81113,2.92643 4.86182,3.55456 4.86182,2.90651 z"
       style="opacity:1;fill:#ffcc00;fill-opacity:1;stroke:none;stroke-width:35.3553;stroke-miterlimit:4;stroke-dasharray:none;stroke-opacity:1" />
  </g>
</svg>
