<svg xmlns="http://www.w3.org/2000/svg" xmlns:xlink="http://www.w3.org/1999/xlink" width="100%" height="100%">
  <defs>
    <pattern id="pattern" width="84" height="84" viewBox="0 0 40,40" patternUnits="userSpaceOnUse" patternTransform="rotate(221)">
      <rect id="pattern-background" width="400%" height="400%" fill="rgba(255, 238, 204,1)"/>
      <path fill="rgba(199, 123, 0,0.43)" d="M-20 20.526315789473685 l20 -20 l20 20 l20 -20 l20 20 l20 -20 l20 20 v-1.0526315789473684 l-20 -20 l-20 20 l-20 -20 l-20 20 l-20 -20 l-20 20 z
                      M-20 -19.473684210526315 l20 -20 l20 20 l20 -20 l20 20 l20 -20 l20 20 v-1.0526315789473684 l-20 -20 l-20 20 l-20 -20 l-20 20 l-20 -20 l-20 20 z
                      M-20 60.526315789473685 l20 -20 l20 20 l20 -20 l20 20 l20 -20 l20 20 v-1.0526315789473684 l-20 -20 l-20 20 l-20 -20 l-20 20 l-20 -20 l-20 20 zM-20 22.63157894736842 l20 -20 l20 20 l20 -20 l20 20 l20 -20 l20 20 v-1.0526315789473684 l-20 -20 l-20 20 l-20 -20 l-20 20 l-20 -20 l-20 20 z
                      M-20 -17.36842105263158 l20 -20 l20 20 l20 -20 l20 20 l20 -20 l20 20 v-1.0526315789473684 l-20 -20 l-20 20 l-20 -20 l-20 20 l-20 -20 l-20 20 z
                      M-20 62.631578947368425 l20 -20 l20 20 l20 -20 l20 20 l20 -20 l20 20 v-1.0526315789473684 l-20 -20 l-20 20 l-20 -20 l-20 20 l-20 -20 l-20 20 zM-20 24.736842105263158 l20 -20 l20 20 l20 -20 l20 20 l20 -20 l20 20 v-1.0526315789473684 l-20 -20 l-20 20 l-20 -20 l-20 20 l-20 -20 l-20 20 z
                      M-20 -15.263157894736842 l20 -20 l20 20 l20 -20 l20 20 l20 -20 l20 20 v-1.0526315789473684 l-20 -20 l-20 20 l-20 -20 l-20 20 l-20 -20 l-20 20 z
                      M-20 64.73684210526316 l20 -20 l20 20 l20 -20 l20 20 l20 -20 l20 20 v-1.0526315789473684 l-20 -20 l-20 20 l-20 -20 l-20 20 l-20 -20 l-20 20 zM-20 26.842105263157897 l20 -20 l20 20 l20 -20 l20 20 l20 -20 l20 20 v-1.0526315789473684 l-20 -20 l-20 20 l-20 -20 l-20 20 l-20 -20 l-20 20 z
                      M-20 -13.157894736842104 l20 -20 l20 20 l20 -20 l20 20 l20 -20 l20 20 v-1.0526315789473684 l-20 -20 l-20 20 l-20 -20 l-20 20 l-20 -20 l-20 20 z
                      M-20 66.84210526315789 l20 -20 l20 20 l20 -20 l20 20 l20 -20 l20 20 v-1.0526315789473684 l-20 -20 l-20 20 l-20 -20 l-20 20 l-20 -20 l-20 20 zM-20 28.94736842105263 l20 -20 l20 20 l20 -20 l20 20 l20 -20 l20 20 v-1.0526315789473684 l-20 -20 l-20 20 l-20 -20 l-20 20 l-20 -20 l-20 20 z
                      M-20 -11.052631578947368 l20 -20 l20 20 l20 -20 l20 20 l20 -20 l20 20 v-1.0526315789473684 l-20 -20 l-20 20 l-20 -20 l-20 20 l-20 -20 l-20 20 z
                      M-20 68.94736842105263 l20 -20 l20 20 l20 -20 l20 20 l20 -20 l20 20 v-1.0526315789473684 l-20 -20 l-20 20 l-20 -20 l-20 20 l-20 -20 l-20 20 zM-20 31.05263157894737 l20 -20 l20 20 l20 -20 l20 20 l20 -20 l20 20 v-1.0526315789473684 l-20 -20 l-20 20 l-20 -20 l-20 20 l-20 -20 l-20 20 z
                      M-20 -8.947368421052632 l20 -20 l20 20 l20 -20 l20 20 l20 -20 l20 20 v-1.0526315789473684 l-20 -20 l-20 20 l-20 -20 l-20 20 l-20 -20 l-20 20 z
                      M-20 71.05263157894737 l20 -20 l20 20 l20 -20 l20 20 l20 -20 l20 20 v-1.0526315789473684 l-20 -20 l-20 20 l-20 -20 l-20 20 l-20 -20 l-20 20 zM-20 33.15789473684211 l20 -20 l20 20 l20 -20 l20 20 l20 -20 l20 20 v-1.0526315789473684 l-20 -20 l-20 20 l-20 -20 l-20 20 l-20 -20 l-20 20 z
                      M-20 -6.842105263157895 l20 -20 l20 20 l20 -20 l20 20 l20 -20 l20 20 v-1.0526315789473684 l-20 -20 l-20 20 l-20 -20 l-20 20 l-20 -20 l-20 20 z
                      M-20 73.15789473684211 l20 -20 l20 20 l20 -20 l20 20 l20 -20 l20 20 v-1.0526315789473684 l-20 -20 l-20 20 l-20 -20 l-20 20 l-20 -20 l-20 20 zM-20 35.26315789473684 l20 -20 l20 20 l20 -20 l20 20 l20 -20 l20 20 v-1.0526315789473684 l-20 -20 l-20 20 l-20 -20 l-20 20 l-20 -20 l-20 20 z
                      M-20 -4.736842105263158 l20 -20 l20 20 l20 -20 l20 20 l20 -20 l20 20 v-1.0526315789473684 l-20 -20 l-20 20 l-20 -20 l-20 20 l-20 -20 l-20 20 z
                      M-20 75.26315789473684 l20 -20 l20 20 l20 -20 l20 20 l20 -20 l20 20 v-1.0526315789473684 l-20 -20 l-20 20 l-20 -20 l-20 20 l-20 -20 l-20 20 zM-20 37.368421052631575 l20 -20 l20 20 l20 -20 l20 20 l20 -20 l20 20 v-1.0526315789473684 l-20 -20 l-20 20 l-20 -20 l-20 20 l-20 -20 l-20 20 z
                      M-20 -2.631578947368422 l20 -20 l20 20 l20 -20 l20 20 l20 -20 l20 20 v-1.0526315789473684 l-20 -20 l-20 20 l-20 -20 l-20 20 l-20 -20 l-20 20 z
                      M-20 77.36842105263158 l20 -20 l20 20 l20 -20 l20 20 l20 -20 l20 20 v-1.0526315789473684 l-20 -20 l-20 20 l-20 -20 l-20 20 l-20 -20 l-20 20 zM-20 39.473684210526315 l20 -20 l20 20 l20 -20 l20 20 l20 -20 l20 20 v-1.0526315789473684 l-20 -20 l-20 20 l-20 -20 l-20 20 l-20 -20 l-20 20 z
                      M-20 -0.5263157894736857 l20 -20 l20 20 l20 -20 l20 20 l20 -20 l20 20 v-1.0526315789473684 l-20 -20 l-20 20 l-20 -20 l-20 20 l-20 -20 l-20 20 z
                      M-20 79.47368421052632 l20 -20 l20 20 l20 -20 l20 20 l20 -20 l20 20 v-1.0526315789473684 l-20 -20 l-20 20 l-20 -20 l-20 20 l-20 -20 l-20 20 zM-20 41.578947368421055 l20 -20 l20 20 l20 -20 l20 20 l20 -20 l20 20 v-1.0526315789473684 l-20 -20 l-20 20 l-20 -20 l-20 20 l-20 -20 l-20 20 z
                      M-20 1.5789473684210504 l20 -20 l20 20 l20 -20 l20 20 l20 -20 l20 20 v-1.0526315789473684 l-20 -20 l-20 20 l-20 -20 l-20 20 l-20 -20 l-20 20 z
                      M-20 81.57894736842105 l20 -20 l20 20 l20 -20 l20 20 l20 -20 l20 20 v-1.0526315789473684 l-20 -20 l-20 20 l-20 -20 l-20 20 l-20 -20 l-20 20 zM-20 43.68421052631579 l20 -20 l20 20 l20 -20 l20 20 l20 -20 l20 20 v-1.0526315789473684 l-20 -20 l-20 20 l-20 -20 l-20 20 l-20 -20 l-20 20 z
                      M-20 3.6842105263157867 l20 -20 l20 20 l20 -20 l20 20 l20 -20 l20 20 v-1.0526315789473684 l-20 -20 l-20 20 l-20 -20 l-20 20 l-20 -20 l-20 20 z
                      M-20 83.6842105263158 l20 -20 l20 20 l20 -20 l20 20 l20 -20 l20 20 v-1.0526315789473684 l-20 -20 l-20 20 l-20 -20 l-20 20 l-20 -20 l-20 20 zM-20 45.78947368421053 l20 -20 l20 20 l20 -20 l20 20 l20 -20 l20 20 v-1.0526315789473684 l-20 -20 l-20 20 l-20 -20 l-20 20 l-20 -20 l-20 20 z
                      M-20 5.7894736842105265 l20 -20 l20 20 l20 -20 l20 20 l20 -20 l20 20 v-1.0526315789473684 l-20 -20 l-20 20 l-20 -20 l-20 20 l-20 -20 l-20 20 z
                      M-20 85.78947368421053 l20 -20 l20 20 l20 -20 l20 20 l20 -20 l20 20 v-1.0526315789473684 l-20 -20 l-20 20 l-20 -20 l-20 20 l-20 -20 l-20 20 zM-20 47.89473684210526 l20 -20 l20 20 l20 -20 l20 20 l20 -20 l20 20 v-1.0526315789473684 l-20 -20 l-20 20 l-20 -20 l-20 20 l-20 -20 l-20 20 z
                      M-20 7.894736842105263 l20 -20 l20 20 l20 -20 l20 20 l20 -20 l20 20 v-1.0526315789473684 l-20 -20 l-20 20 l-20 -20 l-20 20 l-20 -20 l-20 20 z
                      M-20 87.89473684210526 l20 -20 l20 20 l20 -20 l20 20 l20 -20 l20 20 v-1.0526315789473684 l-20 -20 l-20 20 l-20 -20 l-20 20 l-20 -20 l-20 20 zM-20 50 l20 -20 l20 20 l20 -20 l20 20 l20 -20 l20 20 v-1.0526315789473684 l-20 -20 l-20 20 l-20 -20 l-20 20 l-20 -20 l-20 20 z
                      M-20 10 l20 -20 l20 20 l20 -20 l20 20 l20 -20 l20 20 v-1.0526315789473684 l-20 -20 l-20 20 l-20 -20 l-20 20 l-20 -20 l-20 20 z
                      M-20 90 l20 -20 l20 20 l20 -20 l20 20 l20 -20 l20 20 v-1.0526315789473684 l-20 -20 l-20 20 l-20 -20 l-20 20 l-20 -20 l-20 20 zM-20 52.10526315789474 l20 -20 l20 20 l20 -20 l20 20 l20 -20 l20 20 v-1.0526315789473684 l-20 -20 l-20 20 l-20 -20 l-20 20 l-20 -20 l-20 20 z
                      M-20 12.105263157894736 l20 -20 l20 20 l20 -20 l20 20 l20 -20 l20 20 v-1.0526315789473684 l-20 -20 l-20 20 l-20 -20 l-20 20 l-20 -20 l-20 20 z
                      M-20 92.10526315789474 l20 -20 l20 20 l20 -20 l20 20 l20 -20 l20 20 v-1.0526315789473684 l-20 -20 l-20 20 l-20 -20 l-20 20 l-20 -20 l-20 20 zM-20 54.21052631578947 l20 -20 l20 20 l20 -20 l20 20 l20 -20 l20 20 v-1.0526315789473684 l-20 -20 l-20 20 l-20 -20 l-20 20 l-20 -20 l-20 20 z
                      M-20 14.210526315789473 l20 -20 l20 20 l20 -20 l20 20 l20 -20 l20 20 v-1.0526315789473684 l-20 -20 l-20 20 l-20 -20 l-20 20 l-20 -20 l-20 20 z
                      M-20 94.21052631578947 l20 -20 l20 20 l20 -20 l20 20 l20 -20 l20 20 v-1.0526315789473684 l-20 -20 l-20 20 l-20 -20 l-20 20 l-20 -20 l-20 20 zM-20 56.31578947368421 l20 -20 l20 20 l20 -20 l20 20 l20 -20 l20 20 v-1.0526315789473684 l-20 -20 l-20 20 l-20 -20 l-20 20 l-20 -20 l-20 20 z
                      M-20 16.315789473684212 l20 -20 l20 20 l20 -20 l20 20 l20 -20 l20 20 v-1.0526315789473684 l-20 -20 l-20 20 l-20 -20 l-20 20 l-20 -20 l-20 20 z
                      M-20 96.3157894736842 l20 -20 l20 20 l20 -20 l20 20 l20 -20 l20 20 v-1.0526315789473684 l-20 -20 l-20 20 l-20 -20 l-20 20 l-20 -20 l-20 20 zM-20 58.421052631578945 l20 -20 l20 20 l20 -20 l20 20 l20 -20 l20 20 v-1.0526315789473684 l-20 -20 l-20 20 l-20 -20 l-20 20 l-20 -20 l-20 20 z
                      M-20 18.421052631578945 l20 -20 l20 20 l20 -20 l20 20 l20 -20 l20 20 v-1.0526315789473684 l-20 -20 l-20 20 l-20 -20 l-20 20 l-20 -20 l-20 20 z
                      M-20 98.42105263157895 l20 -20 l20 20 l20 -20 l20 20 l20 -20 l20 20 v-1.0526315789473684 l-20 -20 l-20 20 l-20 -20 l-20 20 l-20 -20 l-20 20 z" filter="url(#filter1pattern)"></path>
      
      <path fill="rgba(245, 230, 214,0.87)" d="M-20 21.526315789473685 l20 -20 l20 20 l20 -20 l20 20 l20 -20 l20 20 v-1.0526315789473684 l-20 -20 l-20 20 l-20 -20 l-20 20 l-20 -20 l-20 20 z
                      M-20 -18.473684210526315 l20 -20 l20 20 l20 -20 l20 20 l20 -20 l20 20 v-1.0526315789473684 l-20 -20 l-20 20 l-20 -20 l-20 20 l-20 -20 l-20 20 z
                      M-20 61.526315789473685 l20 -20 l20 20 l20 -20 l20 20 l20 -20 l20 20 v-1.0526315789473684 l-20 -20 l-20 20 l-20 -20 l-20 20 l-20 -20 l-20 20 zM-20 23.63157894736842 l20 -20 l20 20 l20 -20 l20 20 l20 -20 l20 20 v-1.0526315789473684 l-20 -20 l-20 20 l-20 -20 l-20 20 l-20 -20 l-20 20 z
                      M-20 -16.36842105263158 l20 -20 l20 20 l20 -20 l20 20 l20 -20 l20 20 v-1.0526315789473684 l-20 -20 l-20 20 l-20 -20 l-20 20 l-20 -20 l-20 20 z
                      M-20 63.631578947368425 l20 -20 l20 20 l20 -20 l20 20 l20 -20 l20 20 v-1.0526315789473684 l-20 -20 l-20 20 l-20 -20 l-20 20 l-20 -20 l-20 20 zM-20 25.736842105263158 l20 -20 l20 20 l20 -20 l20 20 l20 -20 l20 20 v-1.0526315789473684 l-20 -20 l-20 20 l-20 -20 l-20 20 l-20 -20 l-20 20 z
                      M-20 -14.263157894736842 l20 -20 l20 20 l20 -20 l20 20 l20 -20 l20 20 v-1.0526315789473684 l-20 -20 l-20 20 l-20 -20 l-20 20 l-20 -20 l-20 20 z
                      M-20 65.73684210526316 l20 -20 l20 20 l20 -20 l20 20 l20 -20 l20 20 v-1.0526315789473684 l-20 -20 l-20 20 l-20 -20 l-20 20 l-20 -20 l-20 20 zM-20 27.842105263157897 l20 -20 l20 20 l20 -20 l20 20 l20 -20 l20 20 v-1.0526315789473684 l-20 -20 l-20 20 l-20 -20 l-20 20 l-20 -20 l-20 20 z
                      M-20 -12.157894736842104 l20 -20 l20 20 l20 -20 l20 20 l20 -20 l20 20 v-1.0526315789473684 l-20 -20 l-20 20 l-20 -20 l-20 20 l-20 -20 l-20 20 z
                      M-20 67.84210526315789 l20 -20 l20 20 l20 -20 l20 20 l20 -20 l20 20 v-1.0526315789473684 l-20 -20 l-20 20 l-20 -20 l-20 20 l-20 -20 l-20 20 zM-20 29.94736842105263 l20 -20 l20 20 l20 -20 l20 20 l20 -20 l20 20 v-1.0526315789473684 l-20 -20 l-20 20 l-20 -20 l-20 20 l-20 -20 l-20 20 z
                      M-20 -10.052631578947368 l20 -20 l20 20 l20 -20 l20 20 l20 -20 l20 20 v-1.0526315789473684 l-20 -20 l-20 20 l-20 -20 l-20 20 l-20 -20 l-20 20 z
                      M-20 69.94736842105263 l20 -20 l20 20 l20 -20 l20 20 l20 -20 l20 20 v-1.0526315789473684 l-20 -20 l-20 20 l-20 -20 l-20 20 l-20 -20 l-20 20 zM-20 32.05263157894737 l20 -20 l20 20 l20 -20 l20 20 l20 -20 l20 20 v-1.0526315789473684 l-20 -20 l-20 20 l-20 -20 l-20 20 l-20 -20 l-20 20 z
                      M-20 -7.947368421052633 l20 -20 l20 20 l20 -20 l20 20 l20 -20 l20 20 v-1.0526315789473684 l-20 -20 l-20 20 l-20 -20 l-20 20 l-20 -20 l-20 20 z
                      M-20 72.05263157894737 l20 -20 l20 20 l20 -20 l20 20 l20 -20 l20 20 v-1.0526315789473684 l-20 -20 l-20 20 l-20 -20 l-20 20 l-20 -20 l-20 20 zM-20 34.15789473684211 l20 -20 l20 20 l20 -20 l20 20 l20 -20 l20 20 v-1.0526315789473684 l-20 -20 l-20 20 l-20 -20 l-20 20 l-20 -20 l-20 20 z
                      M-20 -5.842105263157895 l20 -20 l20 20 l20 -20 l20 20 l20 -20 l20 20 v-1.0526315789473684 l-20 -20 l-20 20 l-20 -20 l-20 20 l-20 -20 l-20 20 z
                      M-20 74.15789473684211 l20 -20 l20 20 l20 -20 l20 20 l20 -20 l20 20 v-1.0526315789473684 l-20 -20 l-20 20 l-20 -20 l-20 20 l-20 -20 l-20 20 zM-20 36.26315789473684 l20 -20 l20 20 l20 -20 l20 20 l20 -20 l20 20 v-1.0526315789473684 l-20 -20 l-20 20 l-20 -20 l-20 20 l-20 -20 l-20 20 z
                      M-20 -3.7368421052631584 l20 -20 l20 20 l20 -20 l20 20 l20 -20 l20 20 v-1.0526315789473684 l-20 -20 l-20 20 l-20 -20 l-20 20 l-20 -20 l-20 20 z
                      M-20 76.26315789473684 l20 -20 l20 20 l20 -20 l20 20 l20 -20 l20 20 v-1.0526315789473684 l-20 -20 l-20 20 l-20 -20 l-20 20 l-20 -20 l-20 20 zM-20 38.368421052631575 l20 -20 l20 20 l20 -20 l20 20 l20 -20 l20 20 v-1.0526315789473684 l-20 -20 l-20 20 l-20 -20 l-20 20 l-20 -20 l-20 20 z
                      M-20 -1.6315789473684221 l20 -20 l20 20 l20 -20 l20 20 l20 -20 l20 20 v-1.0526315789473684 l-20 -20 l-20 20 l-20 -20 l-20 20 l-20 -20 l-20 20 z
                      M-20 78.36842105263158 l20 -20 l20 20 l20 -20 l20 20 l20 -20 l20 20 v-1.0526315789473684 l-20 -20 l-20 20 l-20 -20 l-20 20 l-20 -20 l-20 20 zM-20 40.473684210526315 l20 -20 l20 20 l20 -20 l20 20 l20 -20 l20 20 v-1.0526315789473684 l-20 -20 l-20 20 l-20 -20 l-20 20 l-20 -20 l-20 20 z
                      M-20 0.47368421052631426 l20 -20 l20 20 l20 -20 l20 20 l20 -20 l20 20 v-1.0526315789473684 l-20 -20 l-20 20 l-20 -20 l-20 20 l-20 -20 l-20 20 z
                      M-20 80.47368421052632 l20 -20 l20 20 l20 -20 l20 20 l20 -20 l20 20 v-1.0526315789473684 l-20 -20 l-20 20 l-20 -20 l-20 20 l-20 -20 l-20 20 zM-20 42.578947368421055 l20 -20 l20 20 l20 -20 l20 20 l20 -20 l20 20 v-1.0526315789473684 l-20 -20 l-20 20 l-20 -20 l-20 20 l-20 -20 l-20 20 z
                      M-20 2.5789473684210504 l20 -20 l20 20 l20 -20 l20 20 l20 -20 l20 20 v-1.0526315789473684 l-20 -20 l-20 20 l-20 -20 l-20 20 l-20 -20 l-20 20 z
                      M-20 82.57894736842105 l20 -20 l20 20 l20 -20 l20 20 l20 -20 l20 20 v-1.0526315789473684 l-20 -20 l-20 20 l-20 -20 l-20 20 l-20 -20 l-20 20 zM-20 44.68421052631579 l20 -20 l20 20 l20 -20 l20 20 l20 -20 l20 20 v-1.0526315789473684 l-20 -20 l-20 20 l-20 -20 l-20 20 l-20 -20 l-20 20 z
                      M-20 4.684210526315787 l20 -20 l20 20 l20 -20 l20 20 l20 -20 l20 20 v-1.0526315789473684 l-20 -20 l-20 20 l-20 -20 l-20 20 l-20 -20 l-20 20 z
                      M-20 84.6842105263158 l20 -20 l20 20 l20 -20 l20 20 l20 -20 l20 20 v-1.0526315789473684 l-20 -20 l-20 20 l-20 -20 l-20 20 l-20 -20 l-20 20 zM-20 46.78947368421053 l20 -20 l20 20 l20 -20 l20 20 l20 -20 l20 20 v-1.0526315789473684 l-20 -20 l-20 20 l-20 -20 l-20 20 l-20 -20 l-20 20 z
                      M-20 6.7894736842105265 l20 -20 l20 20 l20 -20 l20 20 l20 -20 l20 20 v-1.0526315789473684 l-20 -20 l-20 20 l-20 -20 l-20 20 l-20 -20 l-20 20 z
                      M-20 86.78947368421053 l20 -20 l20 20 l20 -20 l20 20 l20 -20 l20 20 v-1.0526315789473684 l-20 -20 l-20 20 l-20 -20 l-20 20 l-20 -20 l-20 20 zM-20 48.89473684210526 l20 -20 l20 20 l20 -20 l20 20 l20 -20 l20 20 v-1.0526315789473684 l-20 -20 l-20 20 l-20 -20 l-20 20 l-20 -20 l-20 20 z
                      M-20 8.894736842105264 l20 -20 l20 20 l20 -20 l20 20 l20 -20 l20 20 v-1.0526315789473684 l-20 -20 l-20 20 l-20 -20 l-20 20 l-20 -20 l-20 20 z
                      M-20 88.89473684210526 l20 -20 l20 20 l20 -20 l20 20 l20 -20 l20 20 v-1.0526315789473684 l-20 -20 l-20 20 l-20 -20 l-20 20 l-20 -20 l-20 20 zM-20 51 l20 -20 l20 20 l20 -20 l20 20 l20 -20 l20 20 v-1.0526315789473684 l-20 -20 l-20 20 l-20 -20 l-20 20 l-20 -20 l-20 20 z
                      M-20 11 l20 -20 l20 20 l20 -20 l20 20 l20 -20 l20 20 v-1.0526315789473684 l-20 -20 l-20 20 l-20 -20 l-20 20 l-20 -20 l-20 20 z
                      M-20 91 l20 -20 l20 20 l20 -20 l20 20 l20 -20 l20 20 v-1.0526315789473684 l-20 -20 l-20 20 l-20 -20 l-20 20 l-20 -20 l-20 20 zM-20 53.10526315789474 l20 -20 l20 20 l20 -20 l20 20 l20 -20 l20 20 v-1.0526315789473684 l-20 -20 l-20 20 l-20 -20 l-20 20 l-20 -20 l-20 20 z
                      M-20 13.10526315789474 l20 -20 l20 20 l20 -20 l20 20 l20 -20 l20 20 v-1.0526315789473684 l-20 -20 l-20 20 l-20 -20 l-20 20 l-20 -20 l-20 20 z
                      M-20 93.10526315789474 l20 -20 l20 20 l20 -20 l20 20 l20 -20 l20 20 v-1.0526315789473684 l-20 -20 l-20 20 l-20 -20 l-20 20 l-20 -20 l-20 20 zM-20 55.21052631578947 l20 -20 l20 20 l20 -20 l20 20 l20 -20 l20 20 v-1.0526315789473684 l-20 -20 l-20 20 l-20 -20 l-20 20 l-20 -20 l-20 20 z
                      M-20 15.210526315789473 l20 -20 l20 20 l20 -20 l20 20 l20 -20 l20 20 v-1.0526315789473684 l-20 -20 l-20 20 l-20 -20 l-20 20 l-20 -20 l-20 20 z
                      M-20 95.21052631578947 l20 -20 l20 20 l20 -20 l20 20 l20 -20 l20 20 v-1.0526315789473684 l-20 -20 l-20 20 l-20 -20 l-20 20 l-20 -20 l-20 20 zM-20 57.31578947368421 l20 -20 l20 20 l20 -20 l20 20 l20 -20 l20 20 v-1.0526315789473684 l-20 -20 l-20 20 l-20 -20 l-20 20 l-20 -20 l-20 20 z
                      M-20 17.315789473684212 l20 -20 l20 20 l20 -20 l20 20 l20 -20 l20 20 v-1.0526315789473684 l-20 -20 l-20 20 l-20 -20 l-20 20 l-20 -20 l-20 20 z
                      M-20 97.3157894736842 l20 -20 l20 20 l20 -20 l20 20 l20 -20 l20 20 v-1.0526315789473684 l-20 -20 l-20 20 l-20 -20 l-20 20 l-20 -20 l-20 20 zM-20 59.421052631578945 l20 -20 l20 20 l20 -20 l20 20 l20 -20 l20 20 v-1.0526315789473684 l-20 -20 l-20 20 l-20 -20 l-20 20 l-20 -20 l-20 20 z
                      M-20 19.421052631578945 l20 -20 l20 20 l20 -20 l20 20 l20 -20 l20 20 v-1.0526315789473684 l-20 -20 l-20 20 l-20 -20 l-20 20 l-20 -20 l-20 20 z
                      M-20 99.42105263157895 l20 -20 l20 20 l20 -20 l20 20 l20 -20 l20 20 v-1.0526315789473684 l-20 -20 l-20 20 l-20 -20 l-20 20 l-20 -20 l-20 20 z" filter="url(#filter2pattern)"></path>
      
    </pattern>
    <filter id="filter1pattern">
      <feTurbulence baseFrequency="0.4 0.01" numOctaves="2" result="result1"/>
      <feDisplacementMap in2="result1" scale="15" result="result2" xChannelSelector="R" yChannelSelector="G" in="SourceGraphic"/>
      <feComposite in2="result2" in="SourceGraphic" operator="atop" result="compositeGraphic"/>
      <feOffset in="compositeGraphic" result="fbSourceGraphic" dy="-1.5">
      </feOffset>
    </filter>
    <filter id="filter2pattern">
      <feTurbulence baseFrequency="0.01 0.55" numOctaves="2" result="result1"/>
      <feDisplacementMap in2="result1" scale="13" result="result2" xChannelSelector="R" in="SourceGraphic" yChannelSelector="G"/>
      <feComposite in2="result2" in="SourceGraphic" operator="atop" result="compositeGraphic"/>
      <feOffset in="compositeGraphic" result="fbSourceGraphic" dx="-1.3">
      </feOffset>
    </filter>
  </defs>
  <rect fill="url(#pattern)" height="100%" width="100%"/>
</svg>