<?xml version="1.0" encoding="UTF-8" standalone="no"?>
<!DOCTYPE svg PUBLIC "-//W3C//DTD SVG 1.1//EN" "http://www.w3.org/Graphics/SVG/1.1/DTD/svg11.dtd">
<svg version="1.1" xmlns="http://www.w3.org/2000/svg" xmlns:xlink="http://www.w3.org/1999/xlink" preserveAspectRatio="xMidYMid meet" viewBox="0 0 640 640" width="640" height="640"><defs><path d="M14 43L9 53L27 96.54L10 106L17 147L32 206L9 260L15 341L43 376.54L11 409L12 493L20 522L43 539L13 564L7 594L32 592C122.85 586.64 217.53 583.21 316.03 581.71C414.53 580.21 516.85 580.64 623 583L617 512L623 422L576 392L603 391L623 380L620 285L612 276.54L623 269L626 179L594 134L629 96.54L633 3C522.67 6.47 415.67 7.95 312.01 7.45C208.34 6.95 108 4.47 11 0L14 43Z" id="g2hpRmiHH"></path><path d="M304.99 584.44C202.66 586.28 102.81 590.1 5.46 595.91L9 611.91L606 602.91L620 584.91C512.33 582.76 407.33 582.61 304.99 584.44Z" id="j2guTLwezl"></path><path d="M570 394.18L611.8 420L604.43 404.02L620 398.28L620 383.52L570 394.18Z" id="a1braPEjYR"></path><path d="M590 137.62L620 180L614.26 145L626.56 100L590 137.62Z" id="fImFY0P7I"></path><path d="M24.1 100L6.89 110L12.62 91.72L6.07 56.48L24.1 100Z" id="k1leN1Max"></path><path d="M30 208.11L13.44 240L15.9 202.38L5.25 110L30 208.11Z" id="aolmK9d99"></path><path d="M40 380L11.8 408.11L22.46 375.33L11.8 362.21L11.8 345.82L40 380Z" id="aMgW0Lm3S"></path><path d="M562.36 11.73C521.88 24.42 479.78 35.04 436.06 43.59C394.88 51.63 352.27 57.84 308.21 62.21C217.38 71.21 120.43 72.38 17.36 65.73" id="ayNvkxYmU"></path><path d="M594.36 170.73C496.5 147.62 400.15 135.18 305.31 133.39C210.48 131.6 117.16 140.47 25.36 160" id="a5subtAYq"></path><path d="M616.36 87.73C471.95 105.41 399.83 109.5 400 100C400.17 90.5 472.62 67.41 617.36 30.73" id="b2gTUcJEM"></path><path d="M597.36 224.73C472.93 245.66 364.26 255.73 271.37 254.94C178.48 254.16 101.35 242.51 40 220" id="bd31U9yEx"></path><path d="M237.36 165.85C279.36 165.18 322.24 172.81 366 188.73C324 193.39 282 196.05 240 196.72C198 197.39 156 196.06 114 192.73C154.24 175.47 195.36 166.51 237.36 165.85Z" id="e53tlnil3T"></path><path d="M560 382.73C528.16 371.6 469.93 365.38 385.33 364.04C300.72 362.71 189.73 366.27 52.36 374.73" id="n2XfXPPxak"></path><path d="M40 231.73C118.59 265.86 201.22 295.29 287.89 320C374.56 344.71 465.26 364.71 560 380" id="g4kt3rUVIw"></path><path d="M604.36 445.73C585.62 464.94 543.05 474.07 476.64 473.11C377.02 471.68 272.22 430.13 205.91 440C111.85 454 56.54 483.91 40 529.73" id="c9fsJ0j57"></path><path d="M328.36 572.73C291.39 557.98 257.4 550.85 226.4 551.35C195.4 551.85 167.39 559.98 142.36 575.73" id="bYik19DyZ"></path><path d="M610.36 552.73C512.63 553.25 463.59 547.93 463.26 536.76C462.93 525.59 511.29 508.58 608.36 485.73" id="gy7YdcsV1"></path></defs><g><g><g><use xlink:href="#g2hpRmiHH" opacity="1" fill="#bf722e" fill-opacity="1"></use><g><use xlink:href="#g2hpRmiHH" opacity="1" fill-opacity="0" stroke="#000000" stroke-width="8" stroke-opacity="1"></use></g></g><g><use xlink:href="#j2guTLwezl" opacity="1" fill="#77461b" fill-opacity="1"></use><g><use xlink:href="#j2guTLwezl" opacity="1" fill-opacity="0" stroke="#000000" stroke-width="6.67" stroke-opacity="1"></use></g></g><g><use xlink:href="#a1braPEjYR" opacity="1" fill="#77461b" fill-opacity="1"></use><g><use xlink:href="#a1braPEjYR" opacity="1" fill-opacity="0" stroke="#000000" stroke-width="5.33" stroke-opacity="1"></use></g></g><g><use xlink:href="#fImFY0P7I" opacity="1" fill="#77461b" fill-opacity="1"></use><g><use xlink:href="#fImFY0P7I" opacity="1" fill-opacity="0" stroke="#000000" stroke-width="6.67" stroke-opacity="1"></use></g></g><g><use xlink:href="#k1leN1Max" opacity="1" fill="#77461b" fill-opacity="1"></use><g><use xlink:href="#k1leN1Max" opacity="1" fill-opacity="0" stroke="#000000" stroke-width="5.33" stroke-opacity="1"></use></g></g><g><use xlink:href="#aolmK9d99" opacity="1" fill="#77461b" fill-opacity="1"></use><g><use xlink:href="#aolmK9d99" opacity="1" fill-opacity="0" stroke="#000000" stroke-width="5.33" stroke-opacity="1"></use></g></g><g><use xlink:href="#aMgW0Lm3S" opacity="1" fill="#77461b" fill-opacity="1"></use><g><use xlink:href="#aMgW0Lm3S" opacity="1" fill-opacity="0" stroke="#000000" stroke-width="5.33" stroke-opacity="1"></use></g></g><g><g><use xlink:href="#ayNvkxYmU" opacity="1" fill-opacity="0" stroke="#77461b" stroke-width="4" stroke-opacity="1"></use></g></g><g><g><use xlink:href="#a5subtAYq" opacity="1" fill-opacity="0" stroke="#77461b" stroke-width="4" stroke-opacity="1"></use></g></g><g><g><use xlink:href="#b2gTUcJEM" opacity="1" fill-opacity="0" stroke="#77461b" stroke-width="4" stroke-opacity="1"></use></g></g><g><g><use xlink:href="#bd31U9yEx" opacity="1" fill-opacity="0" stroke="#77461b" stroke-width="4" stroke-opacity="1"></use></g></g><g><g><use xlink:href="#e53tlnil3T" opacity="1" fill-opacity="0" stroke="#77461b" stroke-width="4" stroke-opacity="1"></use></g></g><g><g><use xlink:href="#n2XfXPPxak" opacity="1" fill-opacity="0" stroke="#77461b" stroke-width="4" stroke-opacity="1"></use></g></g><g><g><use xlink:href="#g4kt3rUVIw" opacity="1" fill-opacity="0" stroke="#77461b" stroke-width="4" stroke-opacity="1"></use></g></g><g><g><use xlink:href="#c9fsJ0j57" opacity="1" fill-opacity="0" stroke="#77461b" stroke-width="4" stroke-opacity="1"></use></g></g><g><g><use xlink:href="#bYik19DyZ" opacity="1" fill-opacity="0" stroke="#77461b" stroke-width="4" stroke-opacity="1"></use></g></g><g><g><use xlink:href="#gy7YdcsV1" opacity="1" fill-opacity="0" stroke="#77461b" stroke-width="4" stroke-opacity="1"></use></g></g></g></g></svg>