<?xml version="1.0" encoding="UTF-8" standalone="no"?>
<svg
   xmlns:dc="http://purl.org/dc/elements/1.1/"
   xmlns:cc="http://creativecommons.org/ns#"
   xmlns:rdf="http://www.w3.org/1999/02/22-rdf-syntax-ns#"
   xmlns:svg="http://www.w3.org/2000/svg"
   xmlns="http://www.w3.org/2000/svg"
   xmlns:sodipodi="http://sodipodi.sourceforge.net/DTD/sodipodi-0.dtd"
   xmlns:inkscape="http://www.inkscape.org/namespaces/inkscape"
   width="187.62737mm"
   height="177.04404mm"
   viewBox="0 0 187.62737 177.04404"
   version="1.1"
   id="svg8"
   inkscape:version="1.0 (4035a4fb49, 2020-05-01)"
   sodipodi:docname="backgroundStone.svg">
  <defs
     id="defs2" />
  <sodipodi:namedview
     id="base"
     pagecolor="#ffffff"
     bordercolor="#666666"
     borderopacity="1.0"
     inkscape:pageopacity="0.0"
     inkscape:pageshadow="2"
     inkscape:zoom="0.7"
     inkscape:cx="307.79271"
     inkscape:cy="372.02844"
     inkscape:document-units="mm"
     inkscape:current-layer="layer1"
     inkscape:document-rotation="0"
     showgrid="false"
     fit-margin-top="0"
     fit-margin-left="0"
     fit-margin-right="0"
     fit-margin-bottom="0"
     inkscape:window-width="1280"
     inkscape:window-height="967"
     inkscape:window-x="1616"
     inkscape:window-y="116"
     inkscape:window-maximized="0" />
  <metadata
     id="metadata5">
    <rdf:RDF>
      <cc:Work
         rdf:about="">
        <dc:format>image/svg+xml</dc:format>
        <dc:type
           rdf:resource="http://purl.org/dc/dcmitype/StillImage" />
        <dc:title></dc:title>
      </cc:Work>
    </rdf:RDF>
  </metadata>
  <g
     inkscape:label="Warstwa 1"
     inkscape:groupmode="layer"
     id="layer1"
     transform="translate(-7.8619099,-21.469051)">
    <path
       style="fill:#2f2f2c;stroke:none;stroke-width:0.151882"
       d="M 7.8619157,21.469051 V 31.35401 L 20.057696,21.616588 16.305146,21.469051 H 7.8619157 m 25.7987603,0 c 1.5817,2.388486 4.60422,4.894014 4.52573,7.966982 -0.0468,1.832892 -2.05608,3.603864 -3.28833,4.868711 -2.9459,3.02406 -5.91823,6.072758 -9.21156,8.767221 -1.22052,0.998676 -2.48361,2.377406 -4.06526,2.85513 -4.24111,1.281061 -9.42946,-0.177782 -13.7593403,-0.262025 v 3.835954 c 2.5977303,0 6.1383703,-0.24078 8.4409303,1.103427 1.58844,0.927268 2.63745,3.045305 3.60634,4.502968 2.28838,3.442768 4.46378,6.960637 6.6254,10.475107 1.22959,1.99912 2.67385,3.88361 3.86419,5.90147 0.37838,0.64134 1.12232,1.76158 0.37963,2.4044 -1.44535,1.25082 -4.67849,-0.25347 -6.18638,-0.73237 -5.65969,-1.79774 -11.02377,-4.85396 -16.7301103,-6.39321 v 6.34408 c 6.5279803,0.12718 13.7486103,2.18162 19.8572303,4.23312 1.93866,0.65108 5.34488,1.65227 6.24017,3.58691 0.9397,2.03026 -0.87544,5.10625 -1.706,6.93364 -2.26654,4.98733 -5.4709,9.84247 -8.93241,14.163524 -1.34069,1.67351 -3.02969,4.031 -5.13949,4.87535 -3.09877,1.24005 -7.15048,0.0782 -10.3195003,-0.30171 v 3.83595 c 2.4669503,0 6.7029403,0.0578 8.5849803,1.78638 1.40588,1.29109 1.97761,3.43849 2.56793,5.14785 0.36619,1.06034 1.49555,3.66717 0.63581,4.66304 -0.6589,0.76336 -2.23703,0.82001 -3.18913,0.94335 -2.84989,0.36928 -5.72652,0.29507 -8.5995903,0.29507 v 3.39335 c 3.2803203,-0.39112 6.8912103,-0.30186 10.1631503,0.12836 1.48743,0.19548 3.28543,0.44983 4.5342,1.2936 2.87114,1.93996 4.19172,6.36901 5.38253,9.34822 1.12983,2.82724 2.0872,5.7588 2.80268,8.70466 0.29567,1.21777 0.80414,2.72722 0.66186,3.98349 -0.16355,1.44306 -1.35655,3.02746 -2.07532,4.27857 -1.90754,3.32016 -3.99458,6.84231 -6.77778,9.58988 -1.07067,1.05696 -2.20116,2.27251 -3.74639,2.68679 -3.12628,0.83831 -7.90198,-0.40425 -10.9449303,-1.21142 0,0.72898 -0.33398,2.4199 0.1607,3.00931 0.55219,0.65845 3.4872303,0.48274 4.3736303,0.59354 2.92035,0.36736 5.84656,0.65211 8.75594,1.10652 1.36355,0.21245 3.00126,0.31868 4.22146,0.97522 1.56716,0.84538 3.29974,4.38774 1.3739,5.69787 -1.32809,0.90292 -3.89555,0.56801 -5.439,0.56801 h -5.31611 c -2.70964,-0.004 -5.42156,-0.43523 -8.1305203,-0.44261 0,0.51786 -0.20439,1.52996 0.1607,1.95634 0.55502,0.64769 3.4833003,0.56359 4.3736303,0.68014 2.69206,0.35409 5.3925,0.82916 7.97416,1.64209 1.08466,0.34081 2.37761,0.7067 2.90297,1.77044 0.48824,0.98849 0.0376,2.26616 -0.26748,3.2458 -0.34445,1.10653 -0.86601,2.23519 -1.45281,3.24581 -0.89123,1.53586 -1.84533,3.0245 -2.96123,4.4261 -1.3108,1.64651 -3.1171,4.10152 -5.41383,4.4261 v 0.14754 c 2.03311,0 5.4936,0.62998 7.34874,-0.16819 2.12697,-0.91473 4.37562,-4.13841 6.87967,-4.11037 2.56533,0.028 3.99411,3.10564 5.96811,4.1266 1.01241,0.52375 3.05536,0.15196 4.19504,0.15196 -2.01622,-2.78254 -4.79138,-5.18296 -7.03587,-7.81944 -0.88936,-1.04456 -2.15725,-2.22338 -2.55846,-3.54088 -0.31177,-1.02391 0.11586,-2.13929 0.47751,-3.09828 0.88451,-2.34583 2.17804,-4.61494 3.71111,-6.63915 0.65998,-0.87194 1.49852,-2.21895 2.74765,-2.33845 1.35561,-0.12984 2.86835,1.01652 3.9089,1.707 3.22923,2.14223 6.15934,4.88641 8.71342,7.71321 0.87731,0.9708 2.66603,2.60108 2.63788,3.9835 -0.0227,1.10947 -1.208,2.39894 -1.87158,3.2458 -1.85563,2.36797 -4.26258,4.40545 -6.03988,6.78669 1.73117,0 3.96019,0.35261 5.62882,-0.0944 3.72315,-0.99735 7.05041,-3.13073 11.10129,-3.12483 2.96482,0.004 5.02059,2.37239 7.66145,3.12335 2.46495,0.7008 6.02346,0.0959 8.59959,0.0959 -0.0885,-2.68222 2.86475,-6.06818 4.31167,-8.26205 2.27014,-3.44056 4.63784,-6.86194 7.32122,-10.0325 1.14328,-1.34996 2.38443,-3.03188 4.00272,-3.9053 2.76125,-1.48864 7.09857,-1.49897 10.163154,-1.15373 1.87737,0.21245 4.76542,0.17409 6.1731,1.56684 1.40079,1.38537 1.46349,3.62792 1.68943,5.41017 0.65012,5.12985 0.14275,11.35295 -1.13922,16.37657 h 8.13052 c -1.26335,-1.69372 -3.75458,-3.41547 -4.03617,-5.60639 -0.18998,-1.47685 0.70157,-2.9832 1.32981,-4.27857 1.68567,-3.47449 3.88091,-6.79701 6.47158,-9.73742 1.0504,-1.1921 2.57503,-3.07614 4.3653,-3.21335 2.54486,-0.19327 4.99808,2.58337 6.56462,4.09857 2.29984,2.22485 5.44697,5.46771 6.61464,8.40959 1.29541,3.26351 0.90265,6.94013 0.8928,10.32757 1.84265,0 4.15016,0.35704 5.94153,-0.0457 1.01772,-0.23015 1.94179,-1.05046 2.97077,-1.37651 2.2595,-0.71703 4.82139,-0.94129 7.19238,-0.93834 2.22151,0.003 4.61032,0.29803 6.72331,0.96194 1.17111,0.36737 2.38428,1.26882 3.59619,1.3839 3.16622,0.29655 6.51224,0.0147 9.69408,0.0147 h 19.54452 v -0.14754 c -4.10591,0 -8.52141,-0.86161 -12.50849,-1.75273 -1.32903,-0.29803 -3.43045,-0.54884 -4.29823,-1.64651 -1.31652,-1.66717 0.68171,-5.30542 1.41815,-6.92832 1.08824,-2.39895 2.69558,-6.63768 5.07063,-8.11895 3.21156,-2.00207 8.44636,-0.88079 12.03786,-0.88079 v -2.06552 c -1.95914,-0.23311 -5.25982,0.0974 -6.87654,-1.09472 -2.26717,-1.67011 -1.19769,-6.19507 1.24772,-7.25335 1.60265,-0.69283 3.92923,-0.0626 5.62882,-0.0615 v -3.09827 c -4.35452,-0.94217 -8.82474,-2.18266 -12.8212,-4.09503 -1.57451,-0.75362 -3.54303,-1.74314 -4.37798,-3.2818 -1.10543,-2.03498 -0.68327,-4.90988 -0.35492,-7.08177 0.83494,-5.52864 2.35628,-11.08605 4.68912,-16.22903 0.89123,-1.96386 1.82936,-4.58515 3.64622,-5.97096 2.20931,-1.68576 6.46846,-2.09001 9.21876,-2.14356 v -3.39335 c -1.34935,-0.0105 -4.3123,0.12246 -5.15819,-1.04883 -0.68171,-0.94158 -0.51128,-2.32164 -0.32678,-3.37727 0.47688,-2.72072 1.78558,-8.32756 5.48497,-8.40959 0,-0.8861 0.41903,-3.03129 -0.16105,-3.74905 -0.48939,-0.60623 -2.50951,-0.68561 -3.27879,-0.88714 -2.41101,-0.63249 -4.80013,-1.33624 -7.03602,-2.40957 -1.19613,-0.57392 -2.386,-1.22677 -2.70809,-2.54412 -0.49096,-2.002964 -0.002,-4.354844 0.35024,-6.344084 1.01944,-5.76426 3.20374,-11.98632 6.74051,-16.81918 1.02101,-1.39629 2.2312,-2.73902 3.74786,-3.67352 0.62855,-0.38743 2.1796,-0.59088 2.32189,-1.35881 0.2486,-1.34141 0.0234,-2.90028 0.0234,-4.26248 0,-0.49986 0.14697,-1.27015 -0.16105,-1.70877 -0.71924,-1.02583 -3.37416,-1.63014 -4.52963,-2.18237 -3.8448,-1.83831 -8.50578,-3.47227 -11.55629,-6.442187 -2.17022,-2.112873 -2.09361,-4.751862 0.92407,-5.980105 0.90999,-0.370465 1.85438,-0.66362 2.81441,-0.893188 1.65737,-0.395988 3.31631,-0.716438 5.0034,-0.976693 2.47355,-0.381529 5.00652,-0.600179 7.50509,-0.701389 V 45.66507 c -2.59395,-0.454708 -5.23793,-0.60313 -7.81781,-1.162737 -0.73956,-0.16052 -2.22338,-0.259222 -2.6518,-0.943792 -0.61448,-0.98407 1.193,-2.810132 1.77621,-3.499866 1.7465,-2.063301 3.74629,-3.889569 5.72263,-5.753931 0.87403,-0.824583 2.19212,-1.705731 2.80972,-2.718275 0.4378,-0.716527 0.16105,-2.0822 0.16105,-2.88812 v -7.229298 h -31.11487 v 0.147537 c 2.46261,1.63686 4.01835,4.370066 5.47246,6.786688 1.40095,2.327214 2.50952,4.963149 3.32726,7.524372 0.27988,0.877991 0.81774,2.028039 0.55037,2.950734 -0.64731,2.241377 -3.7885,3.935246 -5.7539,5.045755 -1.30245,0.735913 -3.25221,2.033055 -4.84704,1.855274 -2.44041,-0.271763 -5.01309,-2.576434 -6.87967,-3.932739 -4.98026,-3.618927 -8.90386,-7.272467 -11.2259,-12.853249 -0.99052,-2.380431 -1.78137,-5.037287 -0.81352,-7.524372 h -6.09789 c -0.0419,1.912976 -0.21484,5.184322 -1.75323,6.606015 -0.72346,0.668651 -1.97133,0.805078 -2.93746,0.893305 -2.58769,0.23631 -6.71065,0.366879 -9.06865,-0.792774 -2.36958,-1.165363 -4.27447,-3.183045 -6.25425,-4.830691 -0.6323,-0.526251 -1.2718,-1.484105 -2.05921,-1.786832 -0.96269,-0.370139 -2.53641,-0.08902 -3.56961,-0.08902 v 0.147537 c 1.71225,1.068722 3.25299,2.638517 4.34217,4.278564 0.34101,0.513457 0.92484,1.283215 0.64231,1.917874 -0.73316,1.646967 -4.07668,2.573069 -5.76626,2.859999 -0.71924,0.122145 -1.74994,0.258809 -2.25106,-0.373637 -0.49534,-0.62526 -0.24423,-1.773848 -0.13666,-2.486259 0.33445,-2.213375 1.22286,-4.196047 1.76229,-6.344078 h -3.28348 c -0.20717,1.51411 -0.3887,3.548331 -1.24991,4.868711 -2.6493,4.061862 -9.271604,6.421712 -13.760284,8.084583 -2.17819,0.806938 -5.78408,2.371786 -8.13052,1.472166 -1.60953,-0.617102 -2.79596,-2.206411 -3.74863,-3.507744 -2.34957,-3.209632 -4.69288,-7.08455 -5.63273,-10.917716 h -8.13052 v 0.147537 c 2.12144,1.350418 4.27211,2.721683 6.09789,4.426676 0.64543,0.60282 1.71428,1.425751 1.76338,2.360012 0.0732,1.395048 -1.6949,3.212892 -2.49967,4.278564 -2.73482,3.621141 -5.86304,7.486603 -9.42686,10.41255 -1.08355,0.889647 -3.05348,3.243595 -4.69069,3.035273 -0.91843,-0.116997 -1.83937,-0.953087 -2.5017,-1.504874 -1.56059,-1.300094 -2.98374,-2.679267 -4.39141,-4.123504 -2.77533,-2.847753 -5.38507,-5.929942 -7.42489,-9.294812 -0.77271,-1.274761 -1.85501,-3.045659 -1.57888,-4.573638 0.41481,-2.294948 2.86679,-3.874837 4.7956,-5.016247 -1.04978,-0.415704 -4.27963,-0.473804 -5.31611,0.0035 -0.69454,0.319873 -1.22349,1.168371 -2.03263,1.259537 -0.88498,0.09972 -1.42331,-1.05516 -2.18899,-1.321562 -1.12873,-0.392687 -2.86741,-0.08902 -4.06526,-0.08902 m 146.818424,2.255172 c 3.28817,-0.366083 6.9172,0.157628 10.16315,0.659253 0.9569,0.147802 2.82692,0.234598 3.3898,1.102203 0.81305,1.251524 -0.94752,3.319103 -1.69021,4.245427 -2.24215,2.798963 -4.94242,5.343558 -7.79748,7.585452 -0.86152,0.676456 -2.11081,1.997204 -3.28348,2.110365 -2.03263,0.195929 -3.57117,-3.753717 -4.25601,-5.122179 -1.01945,-2.038972 -1.96853,-4.509386 -1.99823,-6.786688 -0.009,-0.838923 -0.13603,-1.812223 0.51284,-2.480358 1.16017,-1.195829 3.3898,-1.138762 4.95962,-1.313475 m -40.96531,6.814588 c 1.52666,-0.08123 4.14016,1.204371 4.0171,2.880713 -0.11648,1.58658 -3.24939,4.380807 -4.94851,4.401905 -0.98333,0.01225 -1.29104,-1.3237 -1.42581,-2.041318 -0.31944,-1.700759 -0.13056,-5.108916 2.35722,-5.2413 m -21.10808,0.857881 c 3.80837,-0.468134 8.11739,0.307629 11.72671,1.432788 1.25351,0.390766 3.17497,0.881827 3.83745,2.071342 0.78366,1.406733 -0.15682,3.735452 -0.53411,5.157853 -1.09356,4.121733 -2.82895,8.302776 -5.14834,11.950473 -0.96659,1.520071 -2.0786,3.247135 -4.09653,3.498243 -3.42357,0.425791 -9.5396,-1.675427 -10.77169,-4.97361 -1.12451,-3.010191 -0.33038,-7.382589 0.0954,-10.475106 0.44343,-3.219103 0.68546,-8.145014 4.89113,-8.661983 m -12.19578,1.917417 c 0.83854,-0.09367 2.08595,-0.213161 2.78111,0.328771 0.82415,0.642389 1.01131,1.940269 1.18799,2.874914 0.50941,2.695496 0.40778,5.717195 -0.0729,8.409592 -0.16777,0.939514 -0.364,1.934944 -0.79851,2.802607 -0.74926,1.495875 -3.17059,2.41975 -4.66129,3.13486 -4.15829,1.994696 -9.161694,4.800402 -13.915704,5.114655 -2.56971,0.169667 -2.86851,-1.830635 -3.16949,-3.822823 -0.53912,-3.568913 -0.78866,-9.097261 1.04962,-12.393083 0.82165,-1.473007 2.7883,-2.201543 4.30886,-2.848344 4.18612,-1.780591 8.722804,-3.090923 13.290274,-3.601149 M 77.596596,35.68914 c 1.31887,-0.125288 2.35973,1.723317 2.97046,2.599095 2.13363,3.059616 3.17496,7.015222 3.60447,10.622642 0.69845,5.866945 0.56179,11.708955 -0.3002,17.556869 -0.30505,2.07038 -0.51222,5.04944 -1.84,6.7861 -0.72721,0.95102 -1.94335,1.51446 -3.02737,2.02951 -2.43868,1.15875 -5.38115,2.53542 -8.13052,2.81412 -1.96102,0.19888 -3.91906,-0.33757 -5.78517,-0.8389 -2.40429,-0.64577 -6.88796,-1.6108 -8.32784,-3.71128 -0.62731,-0.91532 -0.44406,-2.22574 -0.31631,-3.2436 0.22937,-1.82945 0.4245,-3.64371 0.79554,-5.45886 0.85151,-4.165399 1.50446,-9.161582 3.52958,-12.983225 1.75713,-3.31633 4.91412,-6.339357 7.59641,-8.999738 1.9102,-1.894372 3.78913,-3.766317 5.94763,-5.420351 0.89201,-0.683538 2.08985,-1.639 3.28332,-1.752382 m -38.61981,0.447847 c 1.3062,-0.306374 2.53578,0.3423 3.59619,0.978921 2.38928,1.4345 4.44145,3.452949 6.29881,5.450891 2.43947,2.624235 5.9273,5.960925 6.87248,9.442349 0.34914,1.28593 -0.0547,2.691659 -0.182,3.983491 -0.34696,3.520521 -1.15657,7.049897 -2.06422,10.475107 -0.92484,3.49116 -1.58295,8.10994 -5.76532,9.09195 -1.90785,0.44792 -3.84448,0.49616 -5.78517,0.67055 -1.3295,0.11936 -2.96498,0.3836 -4.22162,-0.17999 -1.95007,-0.8746 -3.23579,-3.22737 -4.3775,-4.86134 -2.57659,-3.68782 -4.59718,-7.81103 -6.20484,-11.95047 -0.75614,-1.947189 -1.65362,-4.236959 -1.43034,-6.344078 0.40308,-3.806742 3.53943,-7.478488 6.01079,-10.327569 1.5054,-1.735622 3.10086,-3.447638 4.9074,-4.908693 0.68406,-0.553263 1.44223,-1.309241 2.34534,-1.521119 m 104.914974,2.062431 c 1.07057,-0.218207 2.2531,0.571557 3.12713,1.063149 2.62506,1.476547 4.91239,3.430966 7.19238,5.32755 2.23464,1.858963 5.31407,4.262631 6.37261,6.976421 0.63371,1.624821 0.43498,3.481423 0.3568,5.163784 -0.17965,3.873724 -0.81946,7.793774 -2.04279,11.507864 -0.53912,1.63721 -1.14641,3.77694 -2.5139,4.98482 -1.86705,1.64902 -5.67744,2.31382 -8.11425,2.80349 -2.51124,0.50473 -5.31095,0.9913 -7.81781,0.2157 -1.55872,-0.4823 -2.85663,-1.58321 -4.06526,-2.58735 -3.49362,-2.90234 -8.52219,-8.19389 -8.11598,-12.94103 0.13243,-1.546925 1.10841,-3.201107 1.82358,-4.573641 1.67067,-3.205972 3.68672,-6.349389 5.82724,-9.294812 1.61891,-2.227951 3.24298,-4.469181 5.14802,-6.491614 0.74363,-0.789617 1.66457,-1.918273 2.82223,-2.154331 m 33.30386,3.975081 c 2.1155,-0.194453 5.99313,3.768087 4.45459,5.6899 -0.70204,0.875778 -2.05921,1.398648 -3.04738,1.931551 -2.25153,1.213342 -4.64691,2.237541 -7.03603,3.183399 -1.09918,0.435086 -2.38287,1.074953 -3.59619,1.086608 -2.58144,0.02493 -2.77689,-3.630583 -1.72461,-5.15449 0.59728,-0.866188 1.63861,-1.511513 2.50639,-2.120692 2.24058,-1.573332 5.55533,-4.35071 8.44323,-4.616276 m -70.82933,12.089895 c 2.40163,-0.278254 4.71085,0.578934 6.87967,1.455302 2.85772,1.15477 7.46866,2.890539 8.8471,5.7318 0.77975,1.60741 -0.0819,3.88597 -0.61401,5.45886 -1.46068,4.3181 -3.48956,8.41033 -5.44041,12.54062 -1.33278,2.82193 -2.85335,5.59931 -4.51432,8.26205 -0.7527,1.20656 -1.50149,2.5844 -3.1254,2.77591 -2.70762,0.31912 -5.64743,-0.60727 -8.13052,-1.53675 -2.011374,-0.75302 -4.410034,-1.44748 -6.097894,-2.76306 -1.90708,-1.48629 -3.11508,-3.6896 -4.26993,-5.7054 -1.4366,-2.50768 -3.06458,-5.52938 -3.36479,-8.40959 -0.36259,-3.47626 1.6136,-8.86017 3.73254,-11.654806 1.05759,-1.39496 3.05942,-2.146364 4.68396,-2.80364 3.61261,-1.461794 7.485714,-2.895998 11.414004,-3.351296 m 64.26237,1.330043 c 2.75031,-0.377251 3.98552,3.653599 4.67818,5.561989 1.64018,4.51255 -1.71679,10.56421 -3.85731,14.60613 -0.67233,1.26705 -1.60734,3.89821 -3.32256,4.11141 -1.75745,0.21835 -4.93961,0.38684 -6.18874,-1.02863 -1.36092,-1.54191 -0.53833,-4.51551 -0.53458,-6.32859 0.0131,-6.19226 1.01944,-15.796604 9.22501,-16.922309 m 11.10129,8.711009 c 2.51733,-0.48333 8.14459,2.20582 8.27906,4.81796 0.12352,2.37504 -1.96696,5.09459 -3.1412,7.08176 -0.73956,1.25214 -1.81373,4.06773 -3.41951,4.387 -2.35785,0.46814 -4.94241,0.68266 -7.34717,0.62703 -0.69266,-0.0159 -2.06859,-0.037 -2.49701,-0.64975 -0.61917,-0.8864 0.64575,-3.1834 1.00068,-4.06921 1.26023,-3.15522 2.65493,-6.36222 4.42332,-9.29481 0.62073,-1.02995 1.3384,-2.6381 2.70183,-2.89998 m -56.28821,5.7678 c 1.06369,-0.26144 2.18601,0.58439 2.97077,1.15049 2.20837,1.5931 4.19222,3.66467 5.90854,5.71911 1.22614,1.4677 3.01564,3.3842 3.26706,5.31132 0.19028,1.45767 -0.7674,3.1266 -1.35795,4.42611 -1.62501,3.57629 -3.74583,7.04414 -5.94967,10.32756 -1.11701,1.66422 -2.27201,3.347614 -3.60104,4.868714 -0.55068,0.63028 -1.14874,1.44793 -2.01949,1.69461 -1.41112,0.39968 -2.93371,-0.46076 -4.06526,-1.15536 -2.7353,-1.67882 -6.67125,-4.474934 -7.5359,-7.621014 -0.46985,-1.70965 0.93298,-4.18723 1.56434,-5.75393 1.91052,-4.7405 4.12374,-9.43202 6.73161,-13.86845 0.84807,-1.44261 2.24652,-4.64696 4.08699,-5.09916 m -78.803504,8.83022 c 5.12598,-0.62998 11.1876,0.83314 16.10468,2.10786 1.95305,0.50634 4.29495,0.93656 5.93544,2.11729 2.02653,1.459 4.84141,5.24538 4.49915,7.83022 -0.26581,2.00797 -3.85653,3.98939 -5.43119,5.10861 -4.03399,2.86708 -8.30048,5.483054 -12.8212,7.615984 -2.17023,1.02391 -4.58765,2.1986 -7.03603,2.44602 -3.98599,0.40292 -5.86132,-4.0493 -7.4707,-6.908554 -1.65893,-2.94735 -3.47298,-6.46551 -3.47298,-9.88496 0,-4.51345 4.98964,-9.85427 9.69283,-10.43247 m 36.74369,0.0623 c 3.17794,0.0555 4.4843,4.32873 5.31611,6.68179 0.31991,0.90484 0.91516,2.13471 0.50941,3.09251 -0.34023,0.8029 -1.48663,1.32297 -2.22932,1.7461 -2.17461,1.23916 -5.34269,2.95251 -7.97401,2.82621 -1.29588,-0.0621 -1.80545,-1.4013 -2.30672,-2.3535 -1.15876,-2.20081 -3.29411,-6.66645 -2.20462,-9.14093 0.35258,-0.80054 1.38859,-1.01137 2.16584,-1.30467 2.11331,-0.79773 4.41503,-1.58794 6.72331,-1.54751 m 63.636964,1.26778 c 2.60974,-0.38507 5.69073,1.04279 7.8178,2.3237 0.79773,0.48038 1.85798,1.14415 2.12113,2.05755 0.37885,1.31426 -0.35587,3.15109 -0.69406,4.4261 -0.86497,3.26027 -1.98479,6.5766 -3.57743,9.58989 -0.63371,1.19888 -1.22834,2.636034 -2.38631,3.479064 -1.22927,0.89496 -3.50238,0.99381 -5.00105,1.20198 -2.25763,0.31381 -6.20609,1.0633 -8.28015,-0.12054 -1.22802,-0.70109 -1.49774,-2.74418 -1.68193,-3.970364 -0.73081,-4.86281 2.68042,-8.79333 5.51828,-12.54062 1.39704,-1.84494 3.60385,-6.06906 6.16372,-6.44676 m 18.13731,3.53867 c 3.35853,-0.41192 7.32216,0.24137 10.47586,1.33226 1.1414,0.3948 2.59864,0.85305 3.28192,1.87681 0.43154,0.64621 0.43154,1.47419 0.5363,2.20715 0.34398,2.38331 0.12352,5.00046 -0.17669,7.37683 -0.22202,1.74551 -0.0313,4.724864 -1.24928,6.163354 -0.88498,1.04441 -3.5743,1.32458 -4.89395,1.63736 -4.47022,1.05976 -9.0058,2.08897 -13.60298,2.50178 -0.96535,0.0867 -3.31553,0.38891 -3.85371,-0.58469 -0.76318,-1.38109 0.32365,-4.44735 0.67202,-5.88184 0.99896,-4.113474 2.18414,-8.208354 3.94001,-12.098014 1.04024,-2.30408 2.03748,-4.18355 4.8705,-4.531 m -70.985694,7.08722 c 4.42472,-0.69726 9.907664,2.73518 13.290274,5.0313 1.22568,0.8321 3.14886,2.10092 3.40419,3.62527 0.21342,1.274714 -0.8007,2.280034 -1.68443,3.096054 -2.06312,1.90529 -5.39116,3.69521 -8.28672,4.08898 -2.015904,0.27413 -3.061144,-0.64222 -4.332784,-2.02125 -2.2495,-2.43981 -5.13208,-5.923604 -5.90401,-9.147274 -0.54162,-2.2613 1.15375,-4.30129 3.51348,-4.67308 m -60.66618,5.47523 c 1.18768,-0.18737 2.21931,1.09959 2.87445,1.85351 2.02715,2.332704 3.51144,5.208344 4.76354,7.966984 0.72831,1.60505 1.86611,3.81471 1.53558,5.60639 -0.2816,1.52701 -1.77058,2.99957 -2.80816,4.13103 -2.39084,2.60727 -5.04624,4.96136 -7.92898,7.0797 -1.24428,0.91443 -2.90994,2.15285 -4.53432,2.31544 -1.12045,0.11212 -1.88926,-0.94852 -2.44557,-1.72323 -1.43926,-2.00444 -2.52032,-4.34983 -3.339,-6.63915 -0.54459,-1.52273 -1.28104,-3.3873 -1.06615,-5.01625 0.17209,-1.30437 1.16065,-2.59768 1.87736,-3.68842 1.66517,-2.53438 3.56255,-4.94071 5.58627,-7.2293 1.30714,-1.478314 3.31116,-4.313824 5.48498,-4.656704 m 47.37591,-0.0223 c 4.36781,-0.50619 7.18972,3.49279 8.73249,6.892034 0.53474,1.17823 1.21723,2.67293 1.07041,3.98349 -0.25126,2.24315 -1.88612,4.33463 -3.10961,6.19655 -3.22625,4.90987 -7.22115,9.77297 -11.54049,13.86844 -1.47194,1.3957 -3.97082,4.69698 -6.25409,4.82165 -1.97149,0.1077 -3.98395,-2.70715 -5.09393,-3.93642 -3.54506,-3.92625 -6.72253,-8.13149 -10.21631,-12.09801 -1.23552,-1.40264 -3.39136,-3.44572 -2.65367,-5.45886 0.88435,-2.41356 4.53417,-3.91105 6.70627,-5.13413 3.98348,-2.24315 8.13896,-4.15626 12.35213,-5.976714 3.11618,-1.34628 6.57728,-2.76056 10.0068,-3.15803 M 115.27859,104.723 c 1.37359,-0.15255 2.51358,0.7306 3.43983,1.58189 1.68052,1.54426 3.12885,3.21305 4.48883,5.01403 1.35936,1.8001 3.19577,4.112 3.59072,6.34408 0.3271,1.84834 -0.28863,3.8454 -0.82134,5.60639 -1.24115,4.10418 -3.14041,8.35191 -5.83286,11.80294 -1.54074,1.97478 -3.11008,3.63501 -5.80332,3.91857 -2.11487,0.22279 -4.53339,-0.50442 -6.56696,-0.98657 -5.21213,-1.23548 -10.408634,-3.1868 -15.166544,-5.5341 -1.86533,-0.92034 -5.45433,-2.22899 -5.75625,-4.47966 -0.60964,-4.5459 1.6211,-11.30146 5.44369,-14.24201 3.22922,-2.48423 8.075954,-3.85263 11.882914,-5.38037 3.4511,-1.38493 7.34171,-3.22766 11.10129,-3.64519 m 15.16654,0.44158 c 0.85793,-0.0969 3.02299,-0.32341 3.59182,0.46429 0.38229,0.52937 0.0127,1.34126 -0.21906,1.8541 -0.63089,1.39599 -2.05311,3.48157 -3.84182,3.61494 -2.03685,0.15167 -5.55237,-2.10476 -4.1719,-4.32533 0.77975,-1.25421 3.27723,-1.45412 4.64096,-1.608 m 10.47587,2.36058 c 3.07709,-0.3473 6.51942,0.0634 9.53772,0.63648 1.24475,0.23635 2.77908,0.52759 3.69157,1.43538 1.12045,1.11464 1.02366,3.10506 1.22177,4.5251 0.5105,3.65743 0.20248,7.4059 -0.0624,11.06525 -0.10476,1.44719 -0.21014,3.57924 -1.28994,4.70745 -2.14348,2.23991 -6.66358,2.72752 -9.6589,3.0698 -1.43222,0.16377 -3.49675,0.48392 -4.84469,-0.15226 -0.81087,-0.38256 -1.28025,-1.31263 -1.72055,-2.01859 -1.04758,-1.67927 -1.93271,-3.42359 -2.85475,-5.16379 -1.5731,-2.96917 -4.16407,-7.33611 -3.69313,-10.77018 0.14072,-1.02582 1.15313,-1.90794 1.83515,-2.65566 2.09017,-2.29169 4.56029,-4.3091 7.83814,-4.67898 m 35.80555,0.90558 c 2.09205,-0.20655 6.47471,-0.57878 8.04765,1.01874 1.57295,1.59842 1.06948,4.77503 0.8756,6.73815 -0.27988,2.85115 -0.73957,6.41018 -2.10299,8.99974 -1.11013,2.1086 -3.04895,4.09267 -4.78763,5.75393 -1.27274,1.21452 -2.92542,3.14017 -4.84704,3.36605 -3.58212,0.42107 -8.59333,-1.55607 -11.72671,-3.03453 -1.12498,-0.53069 -2.56299,-1.15713 -3.17809,-2.25008 -1.52041,-2.70125 -0.80883,-6.67383 -0.73316,-9.5893 0.0569,-2.18871 -0.0908,-5.9655 1.36296,-7.80351 0.84698,-1.07068 3.12884,-1.28431 4.42457,-1.55386 4.19034,-0.87223 8.41039,-1.22514 12.66484,-1.64533 m -128.837464,8.53721 c 2.39444,-0.2905 4.47319,2.86561 5.851,4.38347 3.15996,3.48172 6.24268,7.00445 9.22549,10.62264 1.47944,1.79449 3.50362,3.86974 4.29479,6.049 0.85417,2.35292 -0.83135,7.64093 -3.73567,8.06967 -2.34221,0.34568 -4.82358,0.28888 -7.19238,0.5124 -4.36343,0.41162 -8.74922,1.05592 -13.13391,1.15757 -2.06656,0.0478 -5.25122,0.69667 -7.00882,-0.67469 -1.92428,-1.50133 -2.86914,-4.54811 -3.62324,-6.70436 -1.14891,-3.28446 -2.40679,-7.78713 -1.28635,-11.21279 0.54725,-1.67292 2.03842,-3.07555 3.31882,-4.27841 3.30521,-3.10491 8.46434,-7.33892 13.29027,-7.9245 m 82.399694,9.02335 c 1.25867,-0.18368 2.27608,1.47256 2.86585,2.29434 1.91958,2.67396 3.57164,5.56125 4.85752,8.55713 0.29958,0.69814 1.8031,3.61863 0.55209,3.93598 -0.9225,0.234 -2.22166,-0.2393 -3.11571,-0.45013 -2.55939,-0.60387 -5.05703,-1.4404 -7.50509,-2.36457 -0.90468,-0.3414 -2.6443,-0.78062 -3.03284,-1.71777 -0.32132,-0.77531 0.0519,-1.75347 0.28472,-2.50178 0.63418,-2.03733 1.66566,-4.13722 2.91854,-5.90147 0.50316,-0.70862 1.20395,-1.7101 2.17492,-1.85173 m -49.721264,6.3339 c 1.56873,-0.30142 3.23189,0.36987 4.69069,0.82915 3.4944,1.10018 7.03618,2.47641 10.16315,4.32563 1.27774,0.75568 3.36103,1.83226 3.70955,3.34628 0.34117,1.48201 -0.19576,3.03542 -0.68672,4.4261 -1.06322,3.01211 -2.55361,5.94263 -4.20739,8.70467 -1.26445,2.11199 -2.53703,4.21188 -4.02116,6.19654 -0.52505,0.70213 -1.18127,1.81573 -2.14302,2.01638 -0.95971,0.20006 -1.95179,-0.6167 -2.65806,-1.11567 -2.1316,-1.50605 -3.94611,-3.37048 -5.77907,-5.17928 -2.84146,-2.80408 -5.50984,-5.97095 -7.63566,-9.29481 -0.71861,-1.12349 -1.87424,-2.75082 -1.71225,-4.13103 0.0916,-0.7812 0.74675,-1.45102 1.21129,-2.06551 1.22333,-1.61818 2.57628,-3.1682 4.06526,-4.57364 1.37562,-1.29847 2.99062,-3.09827 5.00339,-3.48481 m 75.363674,1.4615 c 4.54152,-0.52627 9.94268,2.02877 14.07205,3.5872 1.27117,0.47979 3.76505,1.04796 4.5312,2.19358 0.52223,0.78283 0.31584,2.14769 0.31584,3.02922 0,2.34097 0.17825,4.75688 -0.11101,7.08176 -0.22047,1.7548 0.24548,4.85662 -1.09293,6.28226 -0.6739,0.71688 -2.37974,0.95973 -3.33039,1.18694 -2.7847,0.66568 -5.58504,1.31234 -8.44323,1.63588 -1.79731,0.2036 -4.06073,0.51225 -5.78518,-0.15727 -1.75947,-0.6831 -3.07208,-2.24241 -4.37734,-3.48895 -3.75599,-3.58676 -7.17409,-7.59032 -7.68866,-12.68816 -0.1562,-1.54854 -0.25877,-3.96475 0.76177,-5.3032 0.6581,-0.86309 2.14692,-1.19977 3.17371,-1.5006 2.60834,-0.76424 5.25216,-1.54323 7.97417,-1.85866 m -32.3651,7.09031 c 3.73769,-0.7334 8.61006,1.17351 12.0388,2.39482 1.42112,0.50635 3.00923,1.02051 4.19488,1.94527 1.6924,1.31972 3.03377,3.40013 4.34638,5.05151 1.5054,1.89408 3.04582,3.878 4.0748,6.049 0.73534,1.5518 0.68734,2.80896 -1.20206,3.36296 -4.8558,1.42373 -11.07565,1.67277 -16.10469,1.10534 -1.60046,-0.18073 -3.93611,-0.11404 -5.07657,-1.38552 -0.89858,-1.00192 -1.22567,-2.58631 -1.60124,-3.82046 -1.01538,-3.33728 -1.37875,-6.75629 -1.85548,-10.18003 -0.17168,-1.23356 -0.54678,-4.18296 1.18518,-4.52289 m -12.1964,1.02465 c 1.68239,-0.16834 4.88425,-0.014 6.23782,1.05193 1.06495,0.8386 1.4341,2.57717 1.83891,3.77414 1.15328,3.40942 1.83609,6.96816 2.55548,10.4751 0.37135,1.81028 0.58853,3.63162 0.82635,5.45886 0.0908,0.69874 0.32115,1.6983 -0.0489,2.3541 -0.64669,1.14606 -3.00767,1.29404 -4.21724,1.43966 -5.35629,0.64518 -11.07643,0.50546 -16.4174,-0.21289 -1.53588,-0.20656 -4.493524,-0.27575 -5.514994,-1.54678 -1.07573,-1.3383 -0.16824,-3.96593 0.16605,-5.42743 0.93845,-4.10373 2.51342,-8.13975 4.362494,-11.95047 0.65232,-1.34421 1.31355,-3.23371 2.57878,-4.18282 1.87471,-1.40602 5.39632,-1.00944 7.63269,-1.2334 m -47.688634,8.11407 c 4.99167,-0.54146 8.96124,3.48261 11.92544,6.74449 0.83432,0.91827 3.01392,2.77679 2.66384,4.13103 -0.45719,1.76838 -2.98468,3.2675 -4.42613,4.29775 -3.28223,2.34583 -6.72081,4.42167 -10.31951,6.30424 -1.64267,0.86014 -3.57164,1.98879 -5.47246,2.20715 -2.52187,0.2877 -5.17789,-0.32606 -7.66145,-0.67129 -5.21245,-0.72441 -10.3722,-1.79848 -15.47926,-3.00975 -2.07485,-0.4913 -6.28036,-1.17203 -7.56654,-2.9469 -0.728,-1.00487 0.78866,-3.18605 1.27414,-4.11568 1.89911,-3.6359 4.39033,-8.35722 8.16867,-10.5536 2.12457,-1.23488 5.25639,-0.76321 7.66146,-0.97935 6.38808,-0.57392 12.8717,-0.71821 19.2318,-1.40809 m 97.878924,12.09845 c 1.54198,-0.15491 3.31475,0.17956 4.84704,0.3808 3.79945,0.49852 7.57233,1.2756 11.25764,2.27516 1.58545,0.43007 4.34045,0.91487 5.28171,2.324 1.40721,2.10785 0.83494,7.00607 -0.98661,8.78979 -1.02413,1.00473 -2.83317,1.54324 -4.13874,2.15846 -3.58056,1.68487 -7.85065,3.68842 -11.88307,4.06907 -2.99141,0.28179 -4.1941,-2.51108 -5.35473,-4.6961 -1.20629,-2.27059 -2.33784,-4.57511 -3.33867,-6.93422 -0.42967,-1.0121 -1.0762,-2.14032 -1.14015,-3.24581 -0.1562,-2.69918 2.92871,-4.86724 5.45558,-5.12115 m -13.60299,2.21305 c 1.75088,-0.17247 3.02831,1.57968 3.95034,2.76056 2.54454,3.25909 4.78559,6.97701 6.30272,10.77018 0.43154,1.0785 2.12394,4.9115 0.0641,5.27739 -2.47324,0.43966 -5.66306,-0.81735 -7.97182,-1.54028 -4.22974,-1.32341 -8.40883,-2.75746 -12.50849,-4.41283 -1.9804,-0.79964 -4.16798,-1.52995 -5.9409,-2.70287 -1.81592,-1.20242 -3.04269,-3.76808 -3.49222,-5.76868 -0.16386,-0.72883 -0.27769,-1.83403 0.20952,-2.47493 0.84557,-1.11243 3.55053,-0.96622 4.84563,-1.12851 4.81171,-0.60357 9.71644,-0.30451 14.54112,-0.78003 m -65.982294,0.16303 c 1.12889,-0.24299 2.23417,0.20169 3.28348,0.53202 2.41023,0.75878 4.82703,1.67321 7.03602,2.8662 0.83479,0.45087 2.80144,1.30761 2.59911,2.44365 -0.12696,0.7126 -1.0579,1.07701 -1.66097,1.36471 -1.82139,0.87342 -3.80133,1.45471 -5.78518,1.90027 -2.23167,0.49868 -6.97567,1.62438 -8.87665,-0.0752 -0.67373,-0.60343 -0.53583,-1.64946 -0.49862,-2.45059 0.10132,-2.17837 1.29588,-6.01994 3.90281,-6.58102 m 30.646434,4.57305 c 2.20165,-0.48318 7.70351,-0.16568 8.88369,2.00945 0.45578,0.84096 -0.0823,1.99912 -0.41153,2.80172 -0.87028,2.12158 -2.96451,5.94131 -5.50202,6.55653 -1.3198,0.32016 -2.0603,-0.71998 -2.60755,-1.68782 -1.12952,-1.99764 -1.76745,-4.5279 -1.77042,-6.78669 -0.001,-1.08439 0.0217,-2.58779 1.40783,-2.89319 m -41.278654,3.54088 c 2.53156,-0.41458 5.12989,2.68369 6.35635,4.36856 1.01569,1.3957 2.09501,3.14106 2.22917,4.86871 0.23735,3.05549 -2.58379,6.91652 -4.21724,9.44235 -0.94252,1.45767 -2.39647,4.22693 -4.36828,4.54118 -1.69724,0.26999 -3.6764,-0.74948 -5.15975,-1.41045 -4.15188,-1.85011 -8.66369,-3.97021 -11.56973,-7.40929 -1.23052,-1.45619 -2.90901,-3.60432 -2.24387,-5.6064 0.5252,-1.58011 2.83974,-2.56271 4.27587,-3.27826 3.13588,-1.56094 6.52944,-2.74566 9.85044,-3.90382 1.5412,-0.53851 3.22751,-1.34701 4.84704,-1.61258 m -25.17334,2.05076 c 1.44442,-0.17704 4.63596,-0.0148 5.50608,1.2998 0.90202,1.36471 -2.20665,4.00267 -3.47345,4.19889 -2.30109,0.35704 -6.05473,-5.00444 -2.03263,-5.49869 m 91.668334,5.5046 c 0.71236,-0.31131 1.77855,0.11065 2.45807,0.33343 1.93397,0.63293 3.83917,1.46799 5.62882,2.4019 2.31689,1.20832 4.66974,2.3296 6.87967,3.71645 0.66248,0.41605 2.04076,1.00767 2.10362,1.86929 0.11992,1.64503 -3.81963,3.07761 -5.07438,3.65005 -1.56841,0.71703 -4.4721,2.19535 -6.25425,1.55209 -2.18445,-0.78932 -3.40762,-4.5279 -4.24507,-6.38244 -0.7527,-1.66716 -1.49085,-3.51875 -1.8081,-5.31132 -0.0958,-0.54146 -0.37338,-1.52848 0.31162,-1.82945 m 33.10388,3.79021 c 0.63949,-0.0752 1.59014,-0.15934 2.07953,0.32753 0.5879,0.5872 0.5363,1.68635 0.59259,2.43288 0.15792,2.12306 0.0907,4.23431 -0.26268,6.34408 -0.16104,0.96489 -0.33773,2.89467 -1.63079,3.07614 -1.18987,0.16672 -2.62053,-0.39244 -3.74942,-0.69489 -3.24908,-0.87342 -10.85612,-2.3119 -8.67495,-6.80735 0.91187,-1.87962 2.8585,-2.39452 4.76605,-2.95516 2.25152,-0.65949 4.52651,-1.45176 6.87967,-1.72323 z"
       id="path24" />
  </g>
</svg>
