<?xml version="1.0" encoding="UTF-8" standalone="no"?>
<svg
   xmlns:dc="http://purl.org/dc/elements/1.1/"
   xmlns:cc="http://creativecommons.org/ns#"
   xmlns:rdf="http://www.w3.org/1999/02/22-rdf-syntax-ns#"
   xmlns:svg="http://www.w3.org/2000/svg"
   xmlns="http://www.w3.org/2000/svg"
   xmlns:sodipodi="http://sodipodi.sourceforge.net/DTD/sodipodi-0.dtd"
   xmlns:inkscape="http://www.inkscape.org/namespaces/inkscape"
   inkscape:version="1.0 (4035a4fb49, 2020-05-01)"
   sodipodi:docname="conquestIcon.svg"
   id="svg2585"
   version="1.1"
   viewBox="0 0 114.1103 113.9201"
   height="113.9201mm"
   width="114.11031mm">
  <defs
     id="defs2579">
    <inkscape:path-effect
       message="Jeśli po konwersji przycięcia na ścieżki nie zostanie spłaszczony wynik, użyj reguły wypełniania w oknie dialogowym &lt;b&gt;wypełnienie i obrys&lt;/b&gt; ."
       hide_clip="false"
       flatten="false"
       inverse="true"
       lpeversion="1"
       is_visible="true"
       id="path-effect3235"
       effect="powerclip" />
    <clipPath
       id="clipPath3231"
       clipPathUnits="userSpaceOnUse">
      <ellipse
         clip-path="none"
         ry="27.662395"
         rx="16.169806"
         cy="198.56082"
         cx="102.64742"
         id="ellipse3233"
         style="display:block;opacity:1;fill:#77001b;fill-opacity:1;stroke:none;stroke-width:18.5208;stroke-miterlimit:4;stroke-dasharray:none;stroke-opacity:1" />
    </clipPath>
  </defs>
  <sodipodi:namedview
     fit-margin-bottom="0"
     fit-margin-right="0"
     fit-margin-left="0"
     fit-margin-top="0"
     showguides="false"
     inkscape:window-maximized="1"
     inkscape:window-y="-8"
     inkscape:window-x="1272"
     inkscape:window-height="987"
     inkscape:window-width="1680"
     showgrid="false"
     inkscape:document-rotation="0"
     inkscape:current-layer="layer1"
     inkscape:document-units="mm"
     inkscape:cy="235.48782"
     inkscape:cx="65.449674"
     inkscape:zoom="0.98994949"
     inkscape:pageshadow="2"
     inkscape:pageopacity="0.0"
     borderopacity="1.0"
     bordercolor="#666666"
     pagecolor="#ffffff"
     id="base" />
  <metadata
     id="metadata2582">
    <rdf:RDF>
      <cc:Work
         rdf:about="">
        <dc:format>image/svg+xml</dc:format>
        <dc:type
           rdf:resource="http://purl.org/dc/dcmitype/StillImage" />
        <dc:title></dc:title>
      </cc:Work>
    </rdf:RDF>
  </metadata>
  <g
     transform="translate(-44.779694,-82.817181)"
     id="layer1"
     inkscape:groupmode="layer"
     inkscape:label="Warstwa 1">
    <path
       id="path3354"
       d="m 45.015059,82.959418 c 0,1.71884 -0.39706,4.00815 0.16615,5.64444 1.26082,3.66302 6.26984,6.78045 8.81704,9.59556 8.74587,9.665692 18.14308,18.800232 27.15226,28.222222 3.07255,3.2131 6.16966,6.44737 9.30261,9.59556 0.82889,0.83283 3.08836,2.38506 3.08836,3.66888 0,1.9098 -4.62308,4.92111 -5.91086,6.20889 -5.36477,5.3642 -10.97534,10.47637 -16.36889,15.80558 -1.26972,1.25447 -4.03612,5.23832 -5.92667,5.26344 -1.32368,0.0178 -2.82092,-2.15872 -3.66889,-3.00679 l -6.49111,-6.49112 c -0.68433,-0.6841 -1.74648,-2.19935 -2.82222,-2.19935 -1.293,0 -3.46555,2.6114 -4.12708,3.61047 -1.08655,1.64084 1.67299,3.49391 2.71597,4.51132 2.9517,2.87951 6.0978,5.5736 9.03111,8.47203 0.74385,0.7349 2.80122,2.16859 2.48163,3.38553 -0.35241,1.34197 -2.37735,2.71809 -3.3283,3.66889 -2.92913,2.92919 -5.73758,6.74653 -9.03111,9.22359 -1.84573,1.38825 -4.21413,0.76962 -5.12094,3.4767 -1.1516,3.43774 3.06789,6.35366 5.94105,4.27425 1.7349,-1.25561 1.67598,-3.59466 3.13645,-5.1212 3.99409,-4.17435 9.08496,-7.97645 12.41233,-12.7 h 0.28222 c 3.08619,4.38121 8.06422,7.7834 11.85333,11.57111 0.98468,0.98439 2.88629,3.74988 4.51556,2.9035 0.93641,-0.48655 3.04602,-2.32212 3.04602,-3.46795 0,-1.07583 -1.51525,-2.13783 -2.19935,-2.82222 l -6.77334,-6.77333 c -0.71769,-0.71769 -3.05703,-2.35966 -2.88374,-3.50633 0.32568,-2.15336 5.02891,-5.41189 6.55263,-6.93589 4.24378,-4.24406 8.62471,-8.53102 12.65203,-12.98223 2.11666,-2.33934 4.82035,-6.30315 7.667971,-7.72273 1.83331,-0.91411 5.58376,4.55705 6.77333,5.74718 5.27134,5.27332 10.38267,10.70017 15.53323,16.08666 1.36567,1.42805 5.06617,3.88564 5.33428,5.92667 0.17752,1.35241 -1.96822,2.83182 -2.80529,3.66889 l -9.31333,9.31333 v 0.28223 l 4.79777,4.79777 h 0.28223 c 4.94848,-4.94848 10.93159,-10.08888 14.95778,-15.80444 h 0.28222 c 3.42081,4.8562 8.70119,8.33967 12.68335,12.7 1.3462,1.47405 0.94996,3.648 2.58628,4.89571 3.12223,2.38111 7.36064,-1.03914 5.89449,-4.61236 -0.89831,-2.1892 -2.92777,-1.7224 -4.51301,-2.9131 -3.39852,-2.55213 -6.30767,-6.21792 -9.31333,-9.22358 -0.92767,-0.92767 -3.65309,-2.81743 -3.65309,-4.23334 0,-1.34422 2.76211,-3.57208 3.66409,-4.51555 3.56503,-3.72816 7.45575,-7.28867 10.71344,-11.28889 v -0.28222 l -3.95111,-3.95112 h -0.28222 l -9.31334,9.31334 c -0.7984,0.7984 -2.3907,3.094 -3.66889,2.92636 -1.98769,-0.26106 -4.82374,-4.36344 -6.20888,-5.74858 -5.17144,-5.17144 -10.56979,-10.13771 -15.80445,-15.24424 -1.18195,-1.15288 -6.32516,-5.02892 -5.86825,-6.7691 0.3525,-1.34281 2.37744,-2.71667 3.32825,-3.66889 2.67829,-2.6828 5.21772,-5.49994 7.90222,-8.18444 9.16969,-9.16968 18.14351,-18.56861 27.10434,-27.940002 3.0099,-3.14762 8.42547,-6.68985 10.16649,-10.72444 0.71374,-1.65388 0.26473,-4.15017 0.26473,-5.92667 -1.77659,0 -4.27285,-0.44889 -5.92667,0.2648 -3.59015,1.5492 -6.4118,6.12657 -9.31333,8.68574 -9.74937,8.599112 -18.91538,18.099192 -28.22222,27.178142 -3.28338,3.20294 -6.63702,6.35169 -9.87778,9.59132 -0.82974,0.82945 -2.38704,3.08864 -3.66888,3.08864 -1.28242,0 -2.838311,-2.25919 -3.668891,-3.08864 -3.24612,-3.24076 -6.62968,-6.34746 -9.87778,-9.59556 -8.69696,-8.6969 -17.63979,-17.19351 -26.52889,-25.693342 -3.16588,-3.02723 -6.67774,-8.38665 -10.73556,-10.16739 -1.63881,-0.71919 -4.1509,-0.26371 -5.91555,-0.26371 z"
       style="fill:#79471e;stroke:none;stroke-width:0.282222" />
  </g>
</svg>
