<?xml version="1.0" encoding="UTF-8" standalone="no"?>
<svg
   xmlns:dc="http://purl.org/dc/elements/1.1/"
   xmlns:cc="http://creativecommons.org/ns#"
   xmlns:rdf="http://www.w3.org/1999/02/22-rdf-syntax-ns#"
   xmlns:svg="http://www.w3.org/2000/svg"
   xmlns="http://www.w3.org/2000/svg"
   xmlns:sodipodi="http://sodipodi.sourceforge.net/DTD/sodipodi-0.dtd"
   xmlns:inkscape="http://www.inkscape.org/namespaces/inkscape"
   inkscape:version="1.0 (4035a4fb49, 2020-05-01)"
   sodipodi:docname="homeIcon.svg"
   id="svg2585"
   version="1.1"
   viewBox="0 0 114.1103 113.9201"
   height="113.9201mm"
   width="114.11031mm">
  <defs
     id="defs2579">
    <inkscape:path-effect
       message="Jeśli po konwersji przycięcia na ścieżki nie zostanie spłaszczony wynik, użyj reguły wypełniania w oknie dialogowym &lt;b&gt;wypełnienie i obrys&lt;/b&gt; ."
       hide_clip="false"
       flatten="false"
       inverse="true"
       lpeversion="1"
       is_visible="true"
       id="path-effect3235"
       effect="powerclip" />
    <clipPath
       id="clipPath3231"
       clipPathUnits="userSpaceOnUse">
      <ellipse
         clip-path="none"
         ry="27.662395"
         rx="16.169806"
         cy="198.56082"
         cx="102.64742"
         id="ellipse3233"
         style="display:block;opacity:1;fill:#77001b;fill-opacity:1;stroke:none;stroke-width:18.5208;stroke-miterlimit:4;stroke-dasharray:none;stroke-opacity:1" />
    </clipPath>
  </defs>
  <sodipodi:namedview
     inkscape:snap-page="false"
     fit-margin-bottom="0"
     fit-margin-right="0"
     fit-margin-left="0"
     fit-margin-top="0"
     showguides="false"
     inkscape:window-maximized="1"
     inkscape:window-y="-8"
     inkscape:window-x="1272"
     inkscape:window-height="987"
     inkscape:window-width="1680"
     showgrid="false"
     inkscape:document-rotation="0"
     inkscape:current-layer="layer3"
     inkscape:document-units="mm"
     inkscape:cy="99.327104"
     inkscape:cx="94.823545"
     inkscape:zoom="1.4"
     inkscape:pageshadow="2"
     inkscape:pageopacity="0.0"
     borderopacity="1.0"
     bordercolor="#666666"
     pagecolor="#ffffff"
     id="base" />
  <metadata
     id="metadata2582">
    <rdf:RDF>
      <cc:Work
         rdf:about="">
        <dc:format>image/svg+xml</dc:format>
        <dc:type
           rdf:resource="http://purl.org/dc/dcmitype/StillImage" />
        <dc:title></dc:title>
      </cc:Work>
    </rdf:RDF>
  </metadata>
  <g
     inkscape:label="Warstwa 2"
     id="layer3"
     inkscape:groupmode="layer">
    <path
       sodipodi:nodetypes="sssssssccssssscsssssscscssssssssssssssscsssssscsscassssscssssssscsssssscssscssscsssssssscss"
       transform="scale(0.26458333)"
       id="path3474"
       d="m 334.80304,388.19194 c -57.01986,-4.38247 -104.51175,-24.8601 -137.12712,-59.12671 -11.87498,-12.47619 -16.05377,-18.10066 -20.60506,-27.73351 -6.65287,-14.08085 -9.52726,-23.61238 -13.34092,-44.2388 -5.84197,-31.5967 -5.6212,-50.49635 0.87447,-74.86072 5.01058,-18.794 4.82585,-22.22336 -1.19706,-22.22336 -6.37388,0 -16.86145,10.44917 -23.29944,23.21413 -5.67593,11.254 -10.06799,29.95963 -10.08482,42.95086 l -0.008,6.06092 -4.79444,1.96568 c -2.63694,1.08113 -7.11101,4.2772 -9.94238,7.10238 -6.12598,6.11258 -8.95211,12.82945 -10.46093,24.86255 -0.57316,4.57099 -1.21781,8.48661 -1.43257,8.70137 -0.21476,0.21476 -2.48365,-0.1366 -5.041968,-0.78079 -6.146334,-1.54766 -11.021386,-0.51375 -15.302927,3.24549 -3.810817,3.34615 -6.555061,10.52626 -6.555061,17.15142 0,2.08872 -0.349993,4.01397 -0.777762,4.27834 -0.427769,0.26438 -4.980419,-3.26825 -10.117,-7.85028 -10.682005,-9.52876 -16.293717,-12.71422 -22.39817,-12.71422 -10.492895,0 -15.03018,13.48463 -18.694188,55.55839 -0.846707,9.72272 -1.555877,20.40508 -1.575933,23.73858 -0.05739,9.53785 -1.537003,4.76548 -3.914822,-12.6269 C 6.7122307,254.93861 14.623097,156.98108 40.909159,73.658138 l 3.818629,-12.10449 2.358933,6.548651 c 6.256511,17.368748 17.955683,35.338001 23.007378,35.338001 2.169494,0 5.380482,-2.91098 5.380482,-4.877767 0,-2.297746 1.584802,-1.137789 3.558359,2.604457 3.014381,5.71584 14.417389,16.56644 20.685302,19.68321 11.938518,5.93653 22.159128,5.73193 29.087278,-0.58227 1.61363,-1.47063 2.71752,-1.81605 3.63188,-1.13646 0.72249,0.53699 4.15264,3.12915 7.62256,5.76036 10.94884,8.3024 17.96385,8.48526 25.92123,0.67569 3.82357,-3.75255 4.63597,-4.12542 7.64592,-3.50929 9.04483,1.85146 10.85061,1.80758 14.33919,-0.34848 8.5562,-5.28803 22.93691,-23.578684 28.92956,-36.795191 2.92398,-6.448731 2.94576,-6.628941 1.58595,-13.128163 -1.68918,-8.073419 -2.00908,-8.610047 -6.16862,-10.348017 -7.15184,-2.988227 -12.47319,2.218015 -11.16738,10.925805 l 0.64589,4.307072 h -10.37809 c -9.24552,0 -10.98776,0.299422 -15.96466,2.743691 -3.0726,1.509031 -7.41686,4.310364 -9.65389,6.225184 -4.28821,3.670543 -4.54956,3.688573 -14.39492,0.993041 -1.00566,-0.275337 -1.16927,-1.467 -0.63993,-4.66084 0.5327,-3.214113 1.96095,-5.619109 5.69133,-9.583534 5.65412,-6.008851 7.91321,-10.610634 7.92374,-16.140686 0.006,-3.327939 0.51312,-4.146114 3.93069,-6.345899 2.15789,-1.388959 8.10953,-6.448022 13.16073,-11.310451 3.49793,-3.367208 7.29487,-8.508742 13.78297,-20.023018 -0.92835,5.067118 -3.56346,9.629336 -2.05631,14.151506 0.49224,1.476964 2.9749,3.383533 3.31012,3.294928 0.0959,-0.02535 2.6899,0.289578 11.30189,0.640373 14.58096,0.593932 15.97734,0.824855 20.29751,3.356648 8.66766,5.079581 13.0241,12.956785 16.1353,29.17538 1.81941,9.484555 2.11917,13.805352 1.69364,24.412074 l -0.51704,12.887787 3.38674,4.43549 c 7.64892,10.01747 14.44602,11.14313 25.25521,4.18248 6.38042,-4.10871 7.15847,-4.37079 9.0042,-3.03302 8.9981,6.52176 17.44464,7.22886 24.25951,2.0309 4.00862,-3.05751 9.31364,-10.79424 11.8138,-17.228983 1.04132,-2.680049 2.28732,-4.148924 3.70042,-4.362282 6.49957,-0.981351 15.38647,-17.137736 20.69149,-37.617127 l 2.2918,-8.847223 8.37121,15.549271 c 29.22185,54.278654 45.71292,109.918584 53.5692,180.739324 2.86571,25.83309 8.86621,112.24014 7.86407,113.2423 -0.25353,0.25351 -4.9029,-10.80337 -10.33195,-24.57087 -16.1326,-40.91057 -24.56011,-56.63431 -32.33087,-60.32178 -6.76341,-3.20944 -11.33565,0.49987 -15.83845,12.8492 l -2.20539,6.0485 -2.93654,-3.42062 c -11.87101,-13.82796 -14.20335,-16.06448 -19.40832,-18.61105 -6.99205,-3.42089 -12.38119,-2.87381 -19.60979,1.99068 l -4.97461,3.34767 -1.75236,-4.67041 c -3.36583,-8.97066 -8.66383,-18.50213 -12.74577,-22.93051 -7.12601,-7.73082 -16.00098,-8.39521 -26.19623,-1.96111 l -5.44442,3.43592 -0.69514,-20.3967 c -1.12894,-33.12562 -3.2966,-42.96054 -11.47318,-52.05485 -5.43434,-6.04429 -11.18362,-8.64193 -17.04397,-7.70081 -4.72928,0.7595 -11.22109,4.24112 -14.34905,7.69556 -4.49034,4.959 -10.61995,28.68675 -12.57014,48.65906 -1.37329,14.06401 0.13469,38.08612 3.1247,49.77699 3.098,12.11304 17.9211,39.11774 29.44048,53.63465 26.28882,33.12953 75.73899,53.93108 142.94865,60.13231 l 13.95778,1.28784 -10.10152,0.63896 c -13.84796,0.87595 -37.17575,0.76216 -50.2833,-0.24526 z"
       style="opacity:1;fill:#79471e;fill-opacity:1;stroke:none;stroke-width:70.7107;stroke-miterlimit:4;stroke-dasharray:none;stroke-opacity:1" />
  </g>
</svg>
