<?xml version="1.0" encoding="UTF-8" standalone="no"?>
<svg
   xmlns:dc="http://purl.org/dc/elements/1.1/"
   xmlns:cc="http://creativecommons.org/ns#"
   xmlns:rdf="http://www.w3.org/1999/02/22-rdf-syntax-ns#"
   xmlns:svg="http://www.w3.org/2000/svg"
   xmlns="http://www.w3.org/2000/svg"
   xmlns:sodipodi="http://sodipodi.sourceforge.net/DTD/sodipodi-0.dtd"
   xmlns:inkscape="http://www.inkscape.org/namespaces/inkscape"
   inkscape:version="1.0 (4035a4fb49, 2020-05-01)"
   sodipodi:docname="huntIcon.svg"
   id="svg2585"
   version="1.1"
   viewBox="0 0 114.1103 113.9201"
   height="113.9201mm"
   width="114.11031mm">
  <defs
     id="defs2579">
    <inkscape:path-effect
       message="Jeśli po konwersji przycięcia na ścieżki nie zostanie spłaszczony wynik, użyj reguły wypełniania w oknie dialogowym &lt;b&gt;wypełnienie i obrys&lt;/b&gt; ."
       hide_clip="false"
       flatten="false"
       inverse="true"
       lpeversion="1"
       is_visible="true"
       id="path-effect3235"
       effect="powerclip" />
    <clipPath
       id="clipPath3231"
       clipPathUnits="userSpaceOnUse">
      <ellipse
         clip-path="none"
         ry="27.662395"
         rx="16.169806"
         cy="198.56082"
         cx="102.64742"
         id="ellipse3233"
         style="display:block;opacity:1;fill:#77001b;fill-opacity:1;stroke:none;stroke-width:18.5208;stroke-miterlimit:4;stroke-dasharray:none;stroke-opacity:1" />
    </clipPath>
    <filter
       inkscape:collect="always"
       style="color-interpolation-filters:sRGB"
       id="filter3404"
       x="-4.4869566e-06"
       width="1.0000089"
       y="-5.16e-06"
       height="1.0000103">
      <feGaussianBlur
         inkscape:collect="always"
         stdDeviation="0.00015440328"
         id="feGaussianBlur3406" />
    </filter>
  </defs>
  <sodipodi:namedview
     inkscape:snap-page="false"
     fit-margin-bottom="0"
     fit-margin-right="0"
     fit-margin-left="0"
     fit-margin-top="0"
     showguides="false"
     inkscape:window-maximized="1"
     inkscape:window-y="-8"
     inkscape:window-x="1272"
     inkscape:window-height="987"
     inkscape:window-width="1680"
     showgrid="false"
     inkscape:document-rotation="0"
     inkscape:current-layer="layer1"
     inkscape:document-units="mm"
     inkscape:cy="199.65028"
     inkscape:cx="-63.336851"
     inkscape:zoom="1.4"
     inkscape:pageshadow="2"
     inkscape:pageopacity="0.0"
     borderopacity="1.0"
     bordercolor="#666666"
     pagecolor="#ffffff"
     id="base" />
  <metadata
     id="metadata2582">
    <rdf:RDF>
      <cc:Work
         rdf:about="">
        <dc:format>image/svg+xml</dc:format>
        <dc:type
           rdf:resource="http://purl.org/dc/dcmitype/StillImage" />
        <dc:title></dc:title>
      </cc:Work>
    </rdf:RDF>
  </metadata>
  <g
     transform="translate(-44.779694,-82.817181)"
     id="layer1"
     inkscape:groupmode="layer"
     inkscape:label="Warstwa 1">
    <path
       sodipodi:nodetypes="ccccccccsccccc"
       style="opacity:0.996;fill:none;stroke:none;stroke-width:0.264583px;stroke-linecap:butt;stroke-linejoin:miter;stroke-opacity:1;filter:url(#filter3404)"
       d="m 108.94115,121.74872 c 4.69865,-0.35607 18.65401,11.18677 28.5372,24.56846 9.26363,13.12904 6.31097,24.47862 4.53571,29.48214 -4.41486,11.48452 -17.54686,15.75151 -25.70238,17.00893 -10.45019,1.03801 -17.984525,0.50594 -26.269336,0.37798 -17.029377,-2.47343 -25.568525,-7.76025 -30.61607,-20.03274 -2.154505,-14.19565 2.146098,-22.67167 9.449405,-32.31697 8.157035,-8.27664 17.957905,-19.09193 26.080355,-19.46577 -5.687842,8.01642 -13.500689,15.73795 -13.418155,25.98587 0.04397,5.45913 5.953125,5.85858 5.953125,2.07886 -0.02358,-12.09439 8.763223,-19.00418 13.843376,-28.06473 1.97259,9.71315 3.86028,20.80988 5.57515,28.25372 1.32574,4.94773 8.17683,3.80217 6.80357,-1.32291 -1.73189,-6.73857 -4.66976,-16.93495 -4.77195,-26.55284 z"
       id="path3398" />
    <path
       sodipodi:nodetypes="cccsccssc"
       id="path3430"
       d="m 92.782669,115.03965 c 5.080794,-0.89902 10.636791,-1.08524 16.725451,-0.47247 -4.7e-4,-3.33948 9.7447,-9.25849 12.5677,-14.45759 1.79996,-7.265466 -2.66126,-8.21326 -7.18154,-5.953123 l -6.4256,3.212797 c -1.71116,-21.472893 -17.18137,-8.207767 -13.890622,1.039435 -2.796708,-2.277928 -5.833277,-3.571821 -8.12649,-4.724703 -4.51214,-2.268418 -7.392389,4.015672 -5.764135,5.953125 4.007356,4.768339 7.862679,7.256179 12.095236,15.402529 z"
       style="fill:none;stroke:none;stroke-width:0.264583px;stroke-linecap:butt;stroke-linejoin:miter;stroke-opacity:1" />
    <path
       transform="matrix(0.26458333,0,0,0.26458333,44.779694,82.817181)"
       id="path3436"
       d="m 183.07891,416.7127 c -14.10436,-0.43014 -18.46307,-0.98571 -34.09092,-4.3453 -46.07469,-9.90486 -71.835172,-27.96164 -88.714249,-62.18412 -4.287369,-8.69268 -4.764485,-10.60274 -5.773082,-23.11164 -0.708126,-8.78238 -0.363049,-22.77106 0.747562,-30.30458 3.459383,-23.46575 11.981657,-42.82628 30.01436,-68.18529 4.519608,-6.35583 7.419429,-9.65068 18.003119,-20.45559 26.89873,-27.46096 40.92811,-40.00926 55.31701,-49.47724 5.52561,-3.63588 13.95792,-7.96745 18.61786,-9.56376 3.41016,-1.16818 10.19501,-2.72314 10.50957,-2.40858 0.10313,0.10313 -5.21193,7.3234 -11.81124,16.04506 -6.59931,8.72166 -14.55534,19.68583 -17.68007,24.36482 -13.30048,19.91624 -19.83917,38.00552 -19.83917,54.885 0,8.4132 1.43986,12.6272 5.71907,16.73784 2.84228,2.73033 9.65169,3.91853 12.86756,2.24532 3.30905,-1.7217 5.15195,-5.237 5.15195,-9.82724 0,-8.11974 1.89124,-19.30161 4.6614,-27.56032 4.72436,-14.08482 11.5261,-25.72727 28.90979,-49.48451 6.10721,-8.34635 13.63343,-19.32241 16.74463,-24.41996 l 1.00247,-1.6425 0.86861,4.42042 c 0.47773,2.43122 3.69718,19.19389 7.15432,37.25036 10.09127,52.70623 12.34537,63.34188 14.20582,67.02827 4.78437,9.48001 17.75621,11.4285 23.74483,3.5667 1.8982,-2.49194 2.95563,-6.7479 2.45535,-9.88235 -0.18643,-1.16807 -1.78278,-7.69223 -3.54744,-14.49814 -6.25383,-24.11962 -10.0921,-41.76938 -12.3019,-56.56854 -1.30081,-8.71158 -2.5806,-22.28454 -2.5806,-27.36876 0,-3.82603 0.0368,-3.94597 1.20949,-3.94597 2.08635,0 7.45061,1.89418 12.17503,4.29914 23.93473,12.18391 62.98784,48.71338 89.49437,83.71118 11.98824,15.82861 20.36933,32.85635 24.42457,49.62297 4.91024,20.30171 3.79574,42.65973 -3.13072,62.80536 -8.74427,25.43275 -30.14395,45.11021 -62.30089,57.28699 -9.7677,3.69871 -23.18404,7.28569 -33.33504,8.91241 -12.66745,2.03001 -56.46948,3.04139 -88.89342,2.05255 z"
       style="opacity:0.996;fill:#79471e;fill-opacity:1;stroke:none;stroke-width:35.3553;stroke-miterlimit:4;stroke-dasharray:none;stroke-opacity:1" />
    <path
       sodipodi:nodetypes="sssssssssssssssssssssssscs"
       transform="matrix(0.26458333,0,0,0.26458333,44.779694,82.817181)"
       id="path3438"
       d="m 179.00616,115.63108 c -0.70063,-1.25043 -1.47314,-2.56794 -2.29775,-3.92348 -3.95115,-6.49511 -9.09849,-13.863647 -13.26599,-18.912775 C 161.11388,89.97369 154.38094,82.55159 148.48034,76.301271 135.97961,63.059646 134.84412,61.522885 134.84412,57.846173 c 0,-9.61044 8.62521,-18.684986 16.85984,-17.738157 4.756,0.546851 24.76001,11.038891 33.44101,17.539698 2.17215,1.626626 4.04198,2.864883 4.15518,2.751683 0.1132,-0.1132 -0.18552,-1.297738 -0.66383,-2.632305 -0.51068,-1.424876 -0.97621,-4.627112 -1.12779,-7.757687 -0.32209,-6.652385 0.81988,-11.73136 4.16361,-18.517758 5.62008,-11.406461 14.58408,-18.708933 23.61345,-19.236576 3.61958,-0.211515 4.1722,-0.106241 7.15779,1.363559 8.70152,4.283745 14.49919,16.489474 16.8189,35.408522 0.45982,3.750192 0.88033,6.888505 0.93446,6.974029 0.0541,0.08552 6.4353,-3.014498 14.18037,-6.888939 18.63728,-9.323238 23.44122,-10.766537 29.75195,-8.938719 5.54361,1.605632 8.80394,6.731226 8.80394,13.840778 0,3.910889 -0.9968,9.664341 -2.02365,11.680368 -2.83891,5.573694 -10.17747,13.489052 -26.21323,28.273574 -14.22338,13.113557 -18.87275,18.446707 -20.33426,23.324797 -0.6051,2.01965 -0.61423,2.02548 -2.68484,1.71497 -1.14271,-0.17136 -6.80344,-0.51829 -12.57939,-0.77094 -14.87771,-0.6508 -29.57875,0.10194 -44.82012,2.29493 l -2.33693,0.33624 z"
       style="opacity:0.996;fill:#79471e;fill-opacity:1;stroke:none;stroke-width:35.3553;stroke-miterlimit:4;stroke-dasharray:none;stroke-opacity:1" />
  </g>
</svg>
