<?xml version="1.0" encoding="UTF-8" standalone="no"?>
<!DOCTYPE svg PUBLIC "-//W3C//DTD SVG 1.1//EN" "http://www.w3.org/Graphics/SVG/1.1/DTD/svg11.dtd">
<svg version="1.1" xmlns="http://www.w3.org/2000/svg" xmlns:xlink="http://www.w3.org/1999/xlink" preserveAspectRatio="xMidYMid meet" viewBox="0 0 640 225" width="640" height="225"><defs><path d="M640 104.22L0 75.73L0 0L19.36 17.73L40.36 5.73L92.12 3.11L139.36 3.11L182.22 5.73L235.27 3.11L255.36 31.14L263.97 22.76L276.32 10.73L305.35 3.11L357.4 5.73L379.43 16.73L429.48 0L455.51 5.73L492.55 10.73L547.6 5.73L575.63 10.73L640 0L640 104.22Z" id="a2zJiekm0H"></path><path d="M244.36 112.73C229.96 115.97 218.02 117.97 208.54 118.73C199.06 119.48 192.04 121 187.49 123.28C186.18 124.82 175.67 137.18 174.36 138.73C166.33 164.3 161.9 184.27 161.06 198.65C160.23 213.03 163 221.81 169.36 225C199.76 225 442.96 225 473.36 225C474.76 215.17 472.05 199.99 465.21 179.44C458.38 158.9 447.43 132.99 432.36 101.73C415.41 91.21 401.77 83.95 391.44 79.95C381.1 75.95 374.08 75.21 370.36 77.73C367.86 72.33 347.86 29.13 345.36 23.73C331.96 23.59 319.26 24.35 307.26 26.02C295.26 27.68 283.96 30.25 273.36 33.73C262.22 52.01 254.23 68.23 249.39 82.4C244.56 96.56 242.88 106.67 244.36 112.73Z" id="b2xgFKnBTL"></path><path d="" id="b1Q2vujsIV"></path><path d="M243.36 114.73L262.36 107.73" id="b1jSlh6vIo"></path><path d="M244.36 112.73C229.96 115.97 218.02 117.97 208.54 118.73C199.06 119.48 192.04 121 187.49 123.28C186.18 124.82 175.67 137.18 174.36 138.73C166.33 164.3 161.9 184.27 161.06 198.65C160.23 213.03 163 221.81 169.36 225C199.76 225 442.96 225 473.36 225C474.76 215.17 472.05 199.99 465.21 179.44C458.38 158.9 447.43 132.99 432.36 101.73C415.41 91.21 401.77 83.95 391.44 79.95C381.1 75.95 374.08 75.21 370.36 77.73C367.86 72.33 347.86 29.13 345.36 23.73C331.96 23.59 319.26 24.35 307.26 26.02C295.26 27.68 283.96 30.25 273.36 33.73C262.22 52.01 254.23 68.23 249.39 82.4C244.56 96.56 242.88 106.67 244.36 112.73Z" id="d1iSZ9X8oj"></path><path d="M428.36 138.73L418.36 156.73L376.36 161.73L413.36 145.73L435.36 111.23L447.36 130.73L428.36 138.73Z" id="bNTpAMeM5"></path><path d="M428.36 138.73L418.36 156.73L376.36 161.73L413.36 145.73L435.36 111.23L447.36 130.73L428.36 138.73Z" id="e1bgsSFBu"></path><path d="M255.36 161.73L240.36 175.73L237.36 195.73L222.36 209.73L205.36 220.73" id="b2aAhRs5gG"></path><path d="M385.36 74.73L430.36 97.73L443.36 124.35L469.36 191.23L473.72 225L537.36 225L579.36 220.73L617.36 182.73L626.36 111.23L604.36 64.73L548.36 26.73L498.36 42.73L430.36 19.73L352.36 39.73L371.36 74.73L385.36 74.73Z" id="e1cPiPqqX0"></path><path d="M385.36 74.73L430.36 97.73L443.36 124.35L469.36 191.23L473.72 225L537.36 225L579.36 220.73L617.36 182.73L626.36 111.23L604.36 64.73L548.36 26.73L498.36 42.73L430.36 19.73L352.36 39.73L371.36 74.73L385.36 74.73Z" id="lDahlVjdw"></path><path d="M499.36 43.73L482.36 55.73L466.36 68.73" id="a1m83oWCb5"></path><path d="M565.36 142.73L582.36 160.73L599.36 172.73L620.36 181.73" id="b2J9MwP2vb"></path><path d="M585.36 164.73L590.36 184.73" id="eCCyRfeOp"></path><path d="M626.36 111.23L626.36 138.73L616.36 184.73L581.36 217.73L565.36 225L575.36 225L640 225L640 5.73L604.36 19.73L558.36 31.73L604.36 62.73L626.36 111.23Z" id="a1UDrp1bWP"></path><path d="M626.36 111.23L626.36 138.73L616.36 184.73L581.36 217.73L565.36 225L575.36 225L640 225L640 5.73L604.36 19.73L558.36 31.73L604.36 62.73L626.36 111.23Z" id="d3UDp9rRY"></path><path d="M614.36 17.73L601.36 33.73L603.36 53.73" id="bxsEpWXtA"></path><path d="M243.36 104.73L234.36 115.36L188.36 122.36L173.36 139.73L164.36 161.73L160.92 205.73L164.36 225L0 225L2.36 17.73L34.36 35.73L38.36 75.73L82.36 75.73L103.36 56.23L89.36 35.73L112.36 13.73L160.92 23.71L216.36 17.73L252.86 62.73L248.36 75.73L243.36 104.73Z" id="g1sML5gSIl"></path><path d="M243.36 104.73L234.36 115.36L188.36 122.36L173.36 139.73L164.36 161.73L160.92 205.73L164.36 225L0 225L2.36 17.73L34.36 35.73L38.36 75.73L82.36 75.73L103.36 56.23L89.36 35.73L112.36 13.73L160.92 23.71L216.36 17.73L252.86 62.73L248.36 75.73L243.36 104.73Z" id="a1DA43oVlF"></path><path d="M160.36 25.73L148.36 42.73L140.36 63.73L135.36 83.73L128.36 104.73L119.36 125.73L98.36 126.73" id="a18L2qLlmF"></path><path d="M35.36 75.73L16.36 86.73L10.36 106.73L16.36 127.73L25.36 146.73L45.36 149.73L42.36 169.73L59.36 182.73" id="b8sR5tPnV"></path><path d="M19.36 133.73L24.36 113.73L33.36 95.73L53.36 91.73" id="c2YFr2dnk"></path><path d="M139.36 68.73L121.36 81.73L105.36 94.73L103.36 115.73L97.36 135.73L87.36 153.73L72.36 167.73" id="hGmWpfhDU"></path><path d="M118.36 126.73L98.36 126.73L105.86 91.73L139.36 68.73L126.43 107.73L118.36 126.73Z" id="bbHEnmoEF"></path><path d="M118.36 126.73L98.36 126.73L105.86 91.73L139.36 68.73L126.43 107.73L118.36 126.73Z" id="c3e7uA9fvR"></path><path d="M85.36 75.73L76.36 94.73L62.36 111.73L81.36 119.73" id="a3ijPT7Iov"></path><path d="M213.36 16.73L208.36 36.73L205.36 56.73L189.36 71.73L176.36 88.73L173.36 108.73" id="bsTgsAoI"></path><path d="M36.36 72.73L81.36 75.73L101.36 56.23L88.36 35.73L98.36 28.73L94.36 13.73L53.36 10.73L25.36 28.73L34.86 35.73L36.36 72.73Z" id="deVKRTKWK"></path><path d="M36.36 72.73L81.36 75.73L101.36 56.23L88.36 35.73L98.36 28.73L94.36 13.73L53.36 10.73L25.36 28.73L34.86 35.73L36.36 72.73Z" id="b3KQUNQDcU"></path></defs><g><g><g><use xlink:href="#a2zJiekm0H" opacity="0.31" fill="#000000" fill-opacity="1"></use></g><g><use xlink:href="#b2xgFKnBTL" opacity="1" fill="#a5a5a5" fill-opacity="1"></use><g><use xlink:href="#b2xgFKnBTL" opacity="1" fill-opacity="0" stroke="#000000" stroke-width="1" stroke-opacity="0"></use></g></g><g><g><use xlink:href="#b1Q2vujsIV" opacity="1" fill-opacity="0" stroke="#000000" stroke-width="1" stroke-opacity="1"></use></g></g><g><use xlink:href="#b1jSlh6vIo" opacity="1" fill="#000000" fill-opacity="0"></use><g><use xlink:href="#b1jSlh6vIo" opacity="1" fill-opacity="0" stroke="#000000" stroke-width="6" stroke-opacity="1"></use></g></g><g><use xlink:href="#d1iSZ9X8oj" opacity="1" fill="#000000" fill-opacity="0"></use><g><use xlink:href="#d1iSZ9X8oj" opacity="1" fill-opacity="0" stroke="#000000" stroke-width="6" stroke-opacity="1"></use></g></g><g><use xlink:href="#bNTpAMeM5" opacity="1" fill="#585656" fill-opacity="1"></use><g><use xlink:href="#bNTpAMeM5" opacity="1" fill-opacity="0" stroke="#000000" stroke-width="1" stroke-opacity="0"></use></g></g><g><use xlink:href="#e1bgsSFBu" opacity="1" fill="#000000" fill-opacity="0"></use><g><use xlink:href="#e1bgsSFBu" opacity="1" fill-opacity="0" stroke="#000000" stroke-width="6" stroke-opacity="1"></use></g></g><g><use xlink:href="#b2aAhRs5gG" opacity="1" fill="#000000" fill-opacity="0"></use><g><use xlink:href="#b2aAhRs5gG" opacity="1" fill-opacity="0" stroke="#000000" stroke-width="4" stroke-opacity="1"></use></g></g><g><use xlink:href="#e1cPiPqqX0" opacity="1" fill="#a5a5a5" fill-opacity="1"></use><g><use xlink:href="#e1cPiPqqX0" opacity="1" fill-opacity="0" stroke="#000000" stroke-width="1" stroke-opacity="0"></use></g></g><g><use xlink:href="#lDahlVjdw" opacity="1" fill="#000000" fill-opacity="0"></use><g><use xlink:href="#lDahlVjdw" opacity="1" fill-opacity="0" stroke="#000000" stroke-width="6" stroke-opacity="1"></use></g></g><g><use xlink:href="#a1m83oWCb5" opacity="1" fill="#000000" fill-opacity="0"></use><g><use xlink:href="#a1m83oWCb5" opacity="1" fill-opacity="0" stroke="#000000" stroke-width="5" stroke-opacity="1"></use></g></g><g><use xlink:href="#b2J9MwP2vb" opacity="1" fill="#000000" fill-opacity="0"></use><g><use xlink:href="#b2J9MwP2vb" opacity="1" fill-opacity="0" stroke="#000000" stroke-width="5" stroke-opacity="1"></use></g></g><g><use xlink:href="#eCCyRfeOp" opacity="1" fill="#000000" fill-opacity="0"></use><g><use xlink:href="#eCCyRfeOp" opacity="1" fill-opacity="0" stroke="#000000" stroke-width="5" stroke-opacity="1"></use></g></g><g><use xlink:href="#a1UDrp1bWP" opacity="1" fill="#a5a5a5" fill-opacity="1"></use><g><use xlink:href="#a1UDrp1bWP" opacity="1" fill-opacity="0" stroke="#000000" stroke-width="1" stroke-opacity="0"></use></g></g><g><use xlink:href="#d3UDp9rRY" opacity="1" fill="#000000" fill-opacity="0"></use><g><use xlink:href="#d3UDp9rRY" opacity="1" fill-opacity="0" stroke="#000000" stroke-width="5" stroke-opacity="1"></use></g></g><g><use xlink:href="#bxsEpWXtA" opacity="1" fill="#000000" fill-opacity="0"></use><g><use xlink:href="#bxsEpWXtA" opacity="1" fill-opacity="0" stroke="#000000" stroke-width="5" stroke-opacity="1"></use></g></g><g><use xlink:href="#g1sML5gSIl" opacity="1" fill="#a5a5a5" fill-opacity="1"></use><g><use xlink:href="#g1sML5gSIl" opacity="1" fill-opacity="0" stroke="#000000" stroke-width="1" stroke-opacity="0"></use></g></g><g><use xlink:href="#a1DA43oVlF" opacity="1" fill="#000000" fill-opacity="0"></use><g><use xlink:href="#a1DA43oVlF" opacity="1" fill-opacity="0" stroke="#000000" stroke-width="5" stroke-opacity="1"></use></g></g><g><use xlink:href="#a18L2qLlmF" opacity="1" fill="#000000" fill-opacity="0"></use><g><use xlink:href="#a18L2qLlmF" opacity="1" fill-opacity="0" stroke="#000000" stroke-width="5" stroke-opacity="1"></use></g></g><g><use xlink:href="#b8sR5tPnV" opacity="1" fill="#000000" fill-opacity="0"></use><g><use xlink:href="#b8sR5tPnV" opacity="1" fill-opacity="0" stroke="#000000" stroke-width="5" stroke-opacity="1"></use></g></g><g><use xlink:href="#c2YFr2dnk" opacity="1" fill="#000000" fill-opacity="0"></use><g><use xlink:href="#c2YFr2dnk" opacity="1" fill-opacity="0" stroke="#0f0404" stroke-width="5" stroke-opacity="1"></use></g></g><g><use xlink:href="#hGmWpfhDU" opacity="1" fill="#000000" fill-opacity="0"></use><g><use xlink:href="#hGmWpfhDU" opacity="1" fill-opacity="0" stroke="#0f0404" stroke-width="5" stroke-opacity="1"></use></g></g><g><use xlink:href="#bbHEnmoEF" opacity="1" fill="#525151" fill-opacity="1"></use><g><use xlink:href="#bbHEnmoEF" opacity="1" fill-opacity="0" stroke="#000000" stroke-width="1" stroke-opacity="0"></use></g></g><g><use xlink:href="#c3e7uA9fvR" opacity="1" fill="#000000" fill-opacity="0"></use><g><use xlink:href="#c3e7uA9fvR" opacity="1" fill-opacity="0" stroke="#0f0404" stroke-width="5" stroke-opacity="1"></use></g></g><g><use xlink:href="#a3ijPT7Iov" opacity="1" fill="#000000" fill-opacity="0"></use><g><use xlink:href="#a3ijPT7Iov" opacity="1" fill-opacity="0" stroke="#0f0404" stroke-width="5" stroke-opacity="1"></use></g></g><g><use xlink:href="#bsTgsAoI" opacity="1" fill="#000000" fill-opacity="0"></use><g><use xlink:href="#bsTgsAoI" opacity="1" fill-opacity="0" stroke="#0f0404" stroke-width="5" stroke-opacity="1"></use></g></g><g><use xlink:href="#deVKRTKWK" opacity="1" fill="#585252" fill-opacity="1"></use><g><use xlink:href="#deVKRTKWK" opacity="1" fill-opacity="0" stroke="#000000" stroke-width="1" stroke-opacity="0"></use></g></g><g><use xlink:href="#b3KQUNQDcU" opacity="1" fill="#000000" fill-opacity="0"></use><g><use xlink:href="#b3KQUNQDcU" opacity="1" fill-opacity="0" stroke="#0f0404" stroke-width="5" stroke-opacity="1"></use></g></g></g></g></svg>