<?xml version="1.0" encoding="UTF-8" standalone="no"?>
<svg
   xmlns:dc="http://purl.org/dc/elements/1.1/"
   xmlns:cc="http://creativecommons.org/ns#"
   xmlns:rdf="http://www.w3.org/1999/02/22-rdf-syntax-ns#"
   xmlns:svg="http://www.w3.org/2000/svg"
   xmlns="http://www.w3.org/2000/svg"
   xmlns:sodipodi="http://sodipodi.sourceforge.net/DTD/sodipodi-0.dtd"
   xmlns:inkscape="http://www.inkscape.org/namespaces/inkscape"
   inkscape:version="1.0 (4035a4fb49, 2020-05-01)"
   sodipodi:docname="settingsIcon.svg"
   id="svg2585"
   version="1.1"
   viewBox="0 0 131.51556 131.79778"
   height="131.79778mm"
   width="131.51556mm">
  <defs
     id="defs2579" />
  <sodipodi:namedview
     fit-margin-bottom="0"
     fit-margin-right="0"
     fit-margin-left="0"
     fit-margin-top="0"
     showguides="false"
     inkscape:window-maximized="1"
     inkscape:window-y="-8"
     inkscape:window-x="1272"
     inkscape:window-height="987"
     inkscape:window-width="1680"
     showgrid="false"
     inkscape:document-rotation="0"
     inkscape:current-layer="layer1"
     inkscape:document-units="mm"
     inkscape:cy="112.33775"
     inkscape:cx="311.4476"
     inkscape:zoom="0.7"
     inkscape:pageshadow="2"
     inkscape:pageopacity="0.0"
     borderopacity="1.0"
     bordercolor="#666666"
     pagecolor="#ffffff"
     id="base" />
  <metadata
     id="metadata2582">
    <rdf:RDF>
      <cc:Work
         rdf:about="">
        <dc:format>image/svg+xml</dc:format>
        <dc:type
           rdf:resource="http://purl.org/dc/dcmitype/StillImage" />
        <dc:title></dc:title>
      </cc:Work>
    </rdf:RDF>
  </metadata>
  <g
     transform="translate(-35.161861,-77.354088)"
     id="layer1"
     inkscape:groupmode="layer"
     inkscape:label="Warstwa 1">
    <path
       id="path3217"
       d="m 88.463978,77.533576 v 13.54667 l -0.29012,5.27665 -5.91877,2.51364 -5.36222,2.019554 -4.51555,-4.165404 -10.16,-10.16 h -0.28223 l -12.98222,12.98223 c -1.03894,1.038914 -4.17497,3.220484 -4.17497,4.797764 0,1.37818 2.43552,3.05844 3.3283,3.95111 l 7.33778,7.33779 c 0.99887,0.99878 2.53825,2.09578 3.15626,3.38667 0.7024,1.46699 -1.41133,4.25816 -1.97076,5.64444 -0.58473,1.44893 -1.13755,5.04021 -2.43569,5.91876 -1.18239,0.80039 -3.86173,0.29013 -5.24092,0.29013 H 35.406201 v 25.11778 h 13.546667 c 1.41441,0 4.04865,-0.50179 5.27665,0.29012 1.34118,0.86473 1.91677,4.45714 2.51364,5.91877 0.58149,1.42381 2.69573,4.12863 1.88759,5.64444 -2.04278,3.83173 -7.16932,7.36911 -10.24232,10.44222 -0.94217,0.94206 -3.61053,2.78695 -3.61053,4.23334 0,1.57734 3.13605,3.75891 4.17497,4.79777 l 12.98222,12.98223 h 0.28223 l 10.44222,-10.44223 4.51555,-4.11536 5.08,1.96963 5.91877,2.51347 0.29012,5.27671 v 13.82889 h 25.400002 v -13.82889 l 0.29013,-5.27671 5.91876,-2.51347 5.08,-1.96963 4.51556,4.11536 10.44222,10.44223 h 0.28222 l 12.98222,-12.98223 c 1.03886,-1.03886 4.17492,-3.22043 4.17492,-4.79777 0,-1.44639 -2.66841,-3.29128 -3.61047,-4.23334 -3.07312,-3.07311 -8.1994,-6.61049 -10.24241,-10.44222 -0.808,-1.51581 1.30612,-4.22063 1.88778,-5.64444 0.59662,-1.46163 1.17235,-5.05404 2.51347,-5.91877 1.22795,-0.79191 3.86222,-0.29012 5.27671,-0.29012 h 13.54667 v -25.11778 h -13.54667 c -1.37922,0 -4.05863,0.51026 -5.24086,-0.29013 -1.29823,-0.87855 -1.8511,-4.46983 -2.43586,-5.91876 -0.55937,-1.38628 -2.67293,-4.17745 -1.97076,-5.64444 0.61807,-1.29089 2.15759,-2.38789 3.15637,-3.38667 l 7.33778,-7.33779 c 0.89267,-0.89267 3.32825,-2.57291 3.32825,-3.95111 0,-1.57728 -3.13606,-3.75885 -4.17492,-4.797764 l -12.98222,-12.98223 h -0.28222 l -10.16,10.16 -4.51556,4.165404 -5.36222,-2.019554 -5.91876,-2.51364 -0.29013,-5.27665 V 77.533576 H 88.463978 m 10.16,42.978494 c 2.707642,-0.33246 5.549052,-0.0663 8.184452,0.58956 19.2055,4.77916 23.26075,31.24003 6.49111,41.64443 -2.91649,1.80961 -6.19309,2.90661 -9.59556,3.32458 -2.70764,0.33246 -5.549052,0.0663 -8.184442,-0.58956 -19.20551,-4.77915 -23.26076,-31.24003 -6.49111,-41.64443 2.91648,-1.80961 6.19308,-2.90661 9.59555,-3.32458 z"
       style="fill:#78461c;stroke:none;stroke-width:0.282222" />
  </g>
</svg>
